<?xml version="1.0" encoding="UTF-8" standalone="no"?>
<!-- Created with Inkscape (http://www.inkscape.org/) -->

<svg
   width="522.80249"
   height="104.87094"
   viewBox="0 0 290.44583 58.261634"
   version="1.1"
   id="svg1"
   xml:space="preserve"
   xmlns="http://www.w3.org/2000/svg"
   xmlns:svg="http://www.w3.org/2000/svg"
   xmlns:rdf="http://www.w3.org/1999/02/22-rdf-syntax-ns#"
   xmlns:cc="http://creativecommons.org/ns#"
   xmlns:dc="http://purl.org/dc/elements/1.1/"><defs
     id="defs1" /><metadata
     id="metadata1"><rdf:RDF><cc:Work
         rdf:about=""><dc:format>image/svg+xml</dc:format><dc:type
           rdf:resource="http://purl.org/dc/dcmitype/StillImage" /></cc:Work></rdf:RDF></metadata><g
     id="g79"
     transform="matrix(0.73983206,0,0,0.80892706,-115.08646,-142.25097)"><g
       id="g1"
       transform="translate(-8.4976195e-6,-116.1289)"><path
         style="opacity:1;fill:#f39042;fill-opacity:1;stroke-width:0.264583"
         d="m 434.68819,328.97201 c 1.30732,2.689 1.85917,5.7404 1.57646,8.71696 -0.37279,3.92498 -2.21964,7.69429 -5.10034,10.38614 -1.92398,1.79785 -4.28666,3.11576 -6.81591,3.84845 -2.7334,0.79183 -5.67234,0.89925 -8.43875,0.23183 -1.74475,-0.42093 -3.41568,-1.14605 -4.91487,-2.13286 l -3.4775,11.128 c 1.83709,0.88095 3.76799,1.56611 5.74947,2.04015 2.69622,0.64503 5.48315,0.89779 8.25328,0.78822 3.79124,-0.14995 7.5746,-0.98809 10.98892,-2.6429 2.48669,-1.20522 4.75963,-2.83298 6.76955,-4.7294 2.45824,-2.31942 4.53755,-5.05834 5.9813,-8.11419 1.46663,-3.10427 2.26296,-6.50122 2.55018,-9.92248 0.22737,-2.70831 0.1392,-5.45391 -0.4173,-8.11416 -0.43476,-2.07833 -1.15454,-4.09683 -2.13288,-5.98133 l 6.81593,-1.99377 -18.54671,-10.98891 -4.59031,20.54048 z"
         id="path10-2" /><path
         style="opacity:1;fill:#3784b6;fill-opacity:1;stroke-width:0.264583"
         d="m 427.08403,321.36789 c -1.35873,-0.82291 -2.8534,-1.42077 -4.40483,-1.76194 -2.27258,-0.49975 -4.66802,-0.44224 -6.90864,0.18544 -1.50363,0.42122 -2.92973,1.09274 -4.26575,1.90106 -1.73482,1.04961 -3.33416,2.34084 -4.63666,3.8948 -1.16245,1.38687 -2.08205,2.97837 -2.68928,4.68305 -0.63401,1.77986 -0.92557,3.67459 -0.92734,5.564 -0.001,1.59355 0.20162,3.18717 0.60278,4.7294 l 6.49134,-2.17924 -6.30587,19.65952 -17.74687,-11.39463 6.58209,-2.29515 c -0.32108,-1.15509 -0.583,-2.32663 -0.78439,-3.50848 -0.5053,-2.96535 -0.62681,-6.01116 -0.16393,-8.98343 0.19352,-1.24261 0.4882,-2.46838 0.85243,-3.67207 0.38889,-1.28519 0.85739,-2.54658 1.40981,-3.77042 0.63263,-1.40156 1.37551,-2.75389 2.22946,-4.0327 1.05767,-1.58389 2.28555,-3.05404 3.65567,-4.37697 2.29109,-2.1726 4.96072,-3.94492 7.8523,-5.21301 4.16481,-1.82646 8.77604,-2.59341 13.31547,-2.3192 2.92545,0.17672 5.82479,0.78009 8.57787,1.78511 z"
         id="path12-7" /><path
         style="display:inline;opacity:1;fill:#f39042;fill-opacity:1;stroke-width:0.264583"
         d="m 532.94174,298.67053 -12.30001,1.23 0.26357,12.87108 h -8.9175 v 10.41108 h 9.00536 v 23.28215 c 0.0752,0.77743 0.1631,1.55364 0.26357,2.32822 0.13422,1.03476 0.29158,2.06969 0.57107,3.075 0.88539,3.18473 3.02007,5.98473 5.79858,7.77536 2.26623,1.46049 4.91916,2.25833 7.59964,2.54786 4.4298,0.47848 8.99882,-0.42289 12.91501,-2.54786 l -3.29464,-10.19143 c -0.79613,0.68535 -1.75078,1.18541 -2.7675,1.44964 -0.94233,0.2449 -1.92596,0.28781 -2.89929,0.26357 -0.87745,-0.0219 -1.76535,-0.0997 -2.59179,-0.39535 -0.94598,-0.3384 -1.78746,-0.96298 -2.38529,-1.77043 -0.59783,-0.80746 -0.94963,-1.7946 -0.99721,-2.79815 l -0.0879,-23.01858 h 13.09072 v -10.36715 h -13.2225 z"
         id="path14-7" /><path
         style="opacity:1;fill:#f39042;fill-opacity:1;stroke-width:0.264583"
         d="m 456.82704,312.74792 h 12.45393 l -0.31181,26.43137 c 0.0738,1.31609 0.29851,2.62365 0.66839,3.88885 0.38311,1.31043 0.92608,2.58275 1.70138,3.70655 1.66676,2.41596 4.39244,4.03809 7.29155,4.49646 3.05595,0.48317 6.27963,-0.30599 8.81158,-2.08406 2.53196,-1.77806 4.3576,-4.51377 5.10317,-7.51651 0.18801,-0.75718 0.31014,-1.53071 0.36457,-2.30899 l 0.0608,-26.55345 h 12.39565 v 48.53559 l -11.24117,-0.0608 -0.54687,-6.76097 -0.85069,0.97221 c -0.61683,0.72738 -1.29897,1.39935 -2.03554,2.00517 -0.72966,0.60014 -1.51125,1.13444 -2.30899,1.6406 -1.11478,0.70732 -2.26784,1.36352 -3.49388,1.85328 -1.65498,0.6611 -3.42173,1.00979 -5.19525,1.18488 -1.60486,0.15844 -3.22469,0.17718 -4.83066,0.0304 -2.29973,-0.21018 -4.57377,-0.76317 -6.68393,-1.70135 -1.6864,-0.74978 -3.26927,-1.74798 -4.61798,-3.00778 -1.87679,-1.75307 -3.26608,-3.97969 -4.2871,-6.33619 -1.03994,-2.40016 -1.71613,-4.95579 -2.02142,-7.55369 -0.14736,-1.25402 -0.20882,-2.5164 -0.26358,-3.77786 -0.39164,-9.02167 -0.44573,-18.05799 -0.16213,-27.0837 z"
         id="path13-9" /><path
         style="opacity:1;fill:#3784b6;fill-opacity:1;stroke-width:0.264583"
         d="m 209.5394,311.27803 8.4343,-8.52215 c -1.80505,-1.85028 -3.81222,-3.50325 -5.97429,-4.92001 -2.65414,-1.7392 -5.54269,-3.12184 -8.56608,-4.08535 -3.5027,-1.11626 -7.1752,-1.6672 -10.85036,-1.75715 -4.50211,-0.11019 -9.03514,0.47346 -13.31037,1.88894 -2.94978,0.97663 -5.77078,2.34724 -8.34643,4.08535 -2.89714,1.95506 -5.4786,4.37263 -7.64358,7.11645 -2.80375,3.55337 -4.90581,7.65336 -6.19393,11.9925 -0.68021,2.29134 -1.13573,4.64912 -1.36179,7.02858 -0.32662,3.43785 -0.17322,6.91702 0.39536,10.32322 0.45131,2.70366 1.16495,5.36757 2.19643,7.90715 1.97604,4.86517 5.14232,9.26111 9.22501,12.56358 4.22928,3.42104 9.36349,5.62214 14.67215,6.80892 4.50008,1.00602 9.15445,1.30588 13.74965,0.9225 3.44195,-0.28717 6.86236,-0.95918 10.10358,-2.15249 4.76135,-1.75298 9.10214,-4.63673 12.56357,-8.34644 l -8.52215,-8.82965 c -0.6593,0.74565 -1.38003,1.43697 -2.15249,2.06465 -1.39119,1.13044 -2.94548,2.0506 -4.56858,2.81143 -2.33912,1.09646 -4.83052,1.8673 -7.38,2.28428 -5.47306,0.89514 -11.2726,0.0991 -16.1218,-2.59178 -3.25023,-1.80361 -6.04074,-4.43771 -7.995,-7.59965 -2.11846,-3.42761 -3.23618,-7.43859 -3.3825,-11.46537 -0.0744,-2.04683 0.0966,-4.10367 0.52714,-6.10608 0.48922,-2.27526 1.31194,-4.4736 2.37214,-6.54535 1.05731,-2.06611 2.36073,-4.02127 3.9975,-5.66679 2.31855,-2.33095 5.26446,-3.98921 8.39037,-5.00787 2.52042,-0.82135 5.16863,-1.24002 7.81929,-1.27392 3.6726,-0.047 7.36607,0.65218 10.71857,2.15249 1.61462,0.72258 3.14658,1.62749 4.56858,2.67965 0.92763,0.68637 1.80887,1.43542 2.63571,2.24036 z"
         id="path15-3" /><path
         style="opacity:1;fill:#3784b6;fill-opacity:1;stroke-width:0.264583"
         d="m 287.01481,293.3515 h 12.30064 v 67.9641 h -12.30064 z"
         id="path16-1" /><path
         style="display:inline;opacity:1;fill:#3784b6;fill-opacity:1;stroke-width:0.264583"
         d="m 333.98087,312.98281 v 48.45705 l 12.30063,-0.12425 c -0.22974,-7.57696 -0.354,-15.15711 -0.37274,-22.73753 -0.003,-1.34603 -0.003,-2.69206 0,-4.03809 0.002,-0.6523 0.0357,-1.31033 0.21155,-1.93847 0.1759,-0.62814 0.47433,-1.21405 0.78244,-1.789 0.73699,-1.37529 1.50999,-2.74808 2.5471,-3.91384 1.44688,-1.62637 3.38018,-2.79722 5.46695,-3.41684 2.39801,-0.71203 5.01023,-0.69999 7.3928,0.0621 2.37198,0.7587 4.51929,2.27735 5.90182,4.34871 1.12335,1.68304 1.72166,3.68232 1.90766,5.69725 0.10249,1.11021 0.0843,2.22761 0.0672,3.34241 -0.12566,8.20993 -0.18342,16.42089 -0.17326,24.63177 h 12.17639 l -0.12425,-25.96801 c -0.009,-1.80337 -0.006,-3.61048 -0.18638,-5.40482 -0.29913,-2.97386 -1.13422,-5.91149 -2.60922,-8.51105 -1.51131,-2.66355 -3.68828,-4.94516 -6.27457,-6.58518 -3.4501,-2.18778 -7.59739,-3.20804 -11.67939,-3.0441 -5.86074,0.23538 -11.58232,2.9459 -15.47675,7.33191 l -0.99937,-6.56732 z"
         id="path19-9" /><path
         style="display:inline;opacity:1;fill:#3784b6;fill-opacity:1;stroke-width:0.264583"
         d="m 310.62207,313.10707 h 12.05214 v 48.33278 h -12.17639 z"
         id="path17-8" /><ellipse
         style="display:inline;opacity:1;fill:#3784b6;fill-opacity:1;stroke-width:0.265957"
         id="path18-6"
         cx="316.57047"
         cy="299.4397"
         rx="7.5325851"
         ry="7.4549298" /><path
         id="path20-5"
         style="display:inline;opacity:1;fill:#3784b6;fill-opacity:1;stroke-width:0.271828"
         d="m 246.79062,311.54171 a 23.809299,25.390732 0 0 0 -23.80888,25.3907 23.809299,25.390732 0 0 0 23.80888,25.39069 23.809299,25.390732 0 0 0 17.13229,-7.84448 v 7.05383 h 11.94862 v -48.76084 h -11.94862 v 6.61458 a 23.809299,25.390732 0 0 0 -17.13229,-7.84448 z m 2.73627,10.69444 a 14.433,14.86 0 0 1 14.39602,13.83119 v 1.4671 a 14.433,14.86 0 0 1 -14.39602,14.42134 14.433,14.86 0 0 1 -14.43271,-14.85956 14.433,14.86 0 0 1 14.43271,-14.86007 z" /></g></g></svg>
