<?xml version="1.0" encoding="UTF-8" standalone="no"?>
<!-- Created with Inkscape (http://www.inkscape.org/) -->

<svg
   width="28.478251"
   height="22.41049"
   viewBox="0 0 28.478251 22.41049"
   version="1.1"
   id="svg1"
   xml:space="preserve"
   xmlns="http://www.w3.org/2000/svg"
   xmlns:svg="http://www.w3.org/2000/svg"><defs
     id="defs1" /><g
     id="g17"
     style="display:inline"
     transform="translate(-1.0057387,-2.1422637)"><path
       style="display:inline;fill:#000000;stroke:#f0fcd8;stroke-width:0;paint-order:stroke fill markers"
       d="m 25.581284,22.848601 c 0.532426,-0.229423 0.927787,-0.629515 1.377548,-1.387216 0.449762,-0.757701 0.953887,-1.872949 1.323808,-3.21873 0.369921,-1.345781 0.605618,-2.922008 0.664542,-4.299405 0.05892,-1.377397 -0.05892,-2.555885 -0.328408,-3.862308 C 28.34929,8.7745189 27.928199,7.3402697 27.279264,6.1175397 26.63033,4.8948098 25.753613,3.8837258 24.822484,3.4370991 23.891355,2.9904724 22.905833,3.1083235 22.022682,3.5871021 c -0.883151,0.4787786 -1.663899,1.318451 -2.267891,2.3201974 -0.603991,1.0017463 -1.031193,2.165503 -1.34792,3.3440263 -0.316727,1.1785232 -0.522962,2.3717422 -0.574521,3.5649962 -0.05156,1.193255 0.05156,2.386474 0.265168,3.616557 0.213608,1.230084 0.537692,2.496959 0.962006,3.637085 0.424314,1.140125 0.948818,2.153415 1.466955,2.611474 0.518137,0.458059 1.029845,0.360832 1.559359,0.353963 0.529514,-0.0069 1.076767,0.07662 1.685159,0.089 0.608392,0.01237 1.277861,-0.04637 1.810287,-0.275795 z"
       id="path15"
       transform="matrix(1.0936853,0,0,1.0936853,-2.1913584,-1.311464)" /><path
       style="display:inline;fill:#fb7717;fill-opacity:1;stroke:#f0fcd8;stroke-width:0;paint-order:stroke fill markers"
       d="m 25.61023,23.351847 c 0.446333,-0.227877 0.870267,-0.88036 1.334315,-1.764262 0.464049,-0.883901 0.968174,-1.999149 1.338095,-3.34493 0.369921,-1.345781 0.605618,-2.922008 0.664542,-4.299405 0.05892,-1.377397 -0.05892,-2.555885 -0.328408,-3.862308 C 28.34929,8.7745189 27.928199,7.3402697 27.279264,6.1175397 26.63033,4.8948098 25.753613,3.8837258 24.822484,3.4370991 23.891355,2.9904724 22.905833,3.1083235 22.022682,3.5871021 c -0.883151,0.4787786 -1.663899,1.318451 -2.267891,2.3201974 -0.603991,1.0017463 -1.031193,2.165503 -1.34792,3.3440263 -0.316727,1.1785232 -0.522962,2.3717422 -0.574521,3.5649962 -0.05156,1.193255 0.05156,2.386474 0.265168,3.616557 0.213608,1.230084 0.537692,2.496959 0.945338,3.663277 0.407646,1.166318 0.898816,2.23199 1.404379,2.684191 0.505562,0.452201 1.025454,0.290877 1.657731,0.256268 0.632276,-0.03461 1.376857,0.0575 1.983537,0.201937 0.60668,0.144432 1.075394,0.341171 1.521727,0.113295 z"
       id="path9"
       transform="translate(0,-0.3125)" /><ellipse
       style="display:inline;opacity:1;fill:#000000;fill-opacity:1;stroke:#f0fcd8;stroke-width:0;paint-order:stroke fill markers"
       id="path17"
       cx="22.429688"
       cy="6.84375"
       rx="0.5078125"
       ry="0.4375" /><ellipse
       style="display:inline;opacity:1;fill:#000000;fill-opacity:1;stroke:#f0fcd8;stroke-width:0;paint-order:stroke fill markers"
       id="ellipse17"
       cx="23.179688"
       cy="10.578125"
       rx="0.5078125"
       ry="0.4375" /><ellipse
       style="display:inline;opacity:1;fill:#000000;fill-opacity:1;stroke:#f0fcd8;stroke-width:0;paint-order:stroke fill markers"
       id="ellipse18"
       cx="26.263533"
       cy="9.2744293"
       rx="0.5078125"
       ry="0.4375" /><ellipse
       style="display:inline;opacity:1;fill:#000000;fill-opacity:1;stroke:#f0fcd8;stroke-width:0;paint-order:stroke fill markers"
       id="ellipse19"
       cx="26.492188"
       cy="14.359375"
       rx="0.5078125"
       ry="0.4375" /></g><g
     id="g15"
     style="display:inline"
     transform="translate(-1.0057387,-2.1422637)"><path
       style="display:inline;fill:#000000;stroke:#f0fcd8;stroke-width:0;paint-order:stroke fill markers"
       d="m 8.8535664,22.45064 c 2.5779936,0 7.7339806,0 10.3709006,-0.07366 2.63692,-0.07366 2.754769,-0.22097 2.879986,-0.434574 0.125216,-0.213605 0.257799,-0.493502 0.41248,-0.876523 0.154681,-0.383021 0.331455,-0.869148 0.522965,-1.539434 0.19151,-0.670287 0.397746,-1.524691 0.574524,-2.401217 0.176778,-0.876527 0.324089,-1.775124 0.405111,-2.334919 0.08102,-0.559795 0.09575,-0.780762 0.110482,-1.001733 0,0 -22.9367763,0 -22.9367763,0 0,0 0.06457,1.15673 0.06457,1.15673 0.075521,0.463542 0.1510418,0.927084 0.3398469,1.561206 0.1888051,0.634123 0.4908822,1.438794 0.8815121,2.190103 0.3906299,0.75131 0.8697867,1.449212 1.4215302,2.040211 0.5517436,0.590998 1.1760386,1.075058 1.5839485,1.342874 0.4079099,0.267816 0.5994143,0.319374 0.6951684,0.345154 0.095754,0.02578 0.095758,0.02578 2.6737516,0.02578 z M 6.15625,22.6875 c 0,0 0,1.71875 0,1.71875 5.1875,0 10.375,0 12.953124,-0.02083 2.578124,-0.02083 2.546876,-0.0625 2.515626,-0.104166 0,0 0,-1.5625 0,-1.5625 z"
       id="path8"
       transform="translate(-0.1875,-0.56249996)" /><path
       style="display:inline;fill:#000000;stroke:#f0fcd8;stroke-width:0;paint-order:stroke fill markers"
       d="m 21.414062,13.25 c -0.08594,-0.151042 -0.257812,-0.333333 -0.468752,-0.445313 -0.21094,-0.11198 -0.460934,-0.153645 -0.617186,-0.204428 -0.156251,-0.05078 -0.218749,-0.110676 -0.240884,-0.201823 -0.02214,-0.09115 -0.0039,-0.21354 -0.0065,-0.333333 -0.0026,-0.119794 -0.02604,-0.236977 -0.108071,-0.359375 -0.08203,-0.122397 -0.222655,-0.249999 -0.378906,-0.287759 -0.156251,-0.03776 -0.328124,0.01432 -0.446613,0.01563 -0.118488,0.0013 -0.183595,-0.04818 -0.214847,-0.122398 -0.03125,-0.07422 -0.02865,-0.173176 -0.03907,-0.282553 -0.01042,-0.109377 -0.03385,-0.229164 -0.100261,-0.348958 -0.06641,-0.119793 -0.17578,-0.239582 -0.307291,-0.315103 -0.131512,-0.07552 -0.285155,-0.106771 -0.410157,-0.07943 -0.125003,0.02735 -0.221352,0.113279 -0.342448,0.156248 -0.121095,0.04297 -0.266925,0.04297 -0.372395,-0.0091 C 17.2552,10.380204 17.190099,10.276042 17.167964,10.154947 17.145829,10.033852 17.166662,9.8958328 17.067703,9.7526033 16.968745,9.6093737 16.749999,9.4609383 16.513018,9.3710939 16.276037,9.2812494 16.020833,9.25 15.83854,9.3255226 c -0.182292,0.075523 -0.291665,0.2578107 -0.398437,0.3333312 -0.106772,0.075521 -0.210936,0.044271 -0.3125,-0.088544 C 15.02604,9.4374954 14.927083,9.2031249 14.809895,9.0390616 14.692706,8.8749983 14.557292,8.7812502 14.390623,8.7369793 14.223954,8.6927084 14.026042,8.6979167 13.919272,8.7942729 13.812501,8.8906292 13.796878,9.0781253 13.70573,9.0651014 13.614582,9.0520775 13.447918,8.838541 13.263019,8.7109368 13.078121,8.5833325 12.875,8.5416667 12.690103,8.528646 12.505205,8.5156253 12.338542,8.53125 12.192707,8.627606 12.046872,8.7239621 11.921875,8.9010417 11.8125,9.0026042 11.703125,9.1041667 11.609375,9.1302083 11.434893,9.0729153 11.260412,9.0156224 11.005208,8.8749999 10.804686,8.8255212 10.604164,8.7760425 10.458333,8.8177084 10.348957,8.958336 10.239582,9.0989636 10.166667,9.3385416 10.067707,9.4843755 9.9687476,9.6302093 9.84375,9.6822917 9.6562475,9.6249983 9.468745,9.567705 9.21875,9.4010417 9.0026023,9.3645843 8.7864546,9.3281269 8.6041667,9.421875 8.4687492,9.5468765 8.3333317,9.6718779 8.2447917,9.828125 8.179687,9.9765641 8.1145824,10.125003 8.0729167,10.265625 7.9765613,10.325521 c -0.096356,0.05989 -0.2473951,0.03906 -0.3958338,0.01302 -0.1484387,-0.02604 -0.2942692,-0.05729 -0.4505201,-0.02864 -0.156251,0.02865 -0.3229156,0.117187 -0.4166659,0.218751 -0.09375,0.101564 -0.1145832,0.216145 -0.1562504,0.359376 -0.041667,0.14323 -0.1041661,0.315102 -0.2291677,0.388018 -0.1250017,0.07292 -0.3124975,0.04687 -0.4661456,0.05729 -0.153648,0.01042 -0.2734367,0.05729 -0.4114587,0.153649 -0.1380221,0.09636 -0.2942693,0.242187 -0.3489562,0.395834 -0.054687,0.153648 -0.00781,0.315103 -0.052085,0.427083 -0.044272,0.111979 -0.1796864,0.174478 -0.3359382,0.260417 -0.1562517,0.08594 -0.3333316,0.195311 -0.4661448,0.312499 -0.1328132,0.117189 -0.2213534,0.242187 -0.2734365,0.346352 -0.052083,0.104165 -0.067709,0.187502 -0.075521,0.252608 -0.00781,0.06511 -0.00781,0.111977 -0.00781,0.158852 0,0 17.609375,0 17.609375,0 0,-0.119792 0,-0.239583 -0.08594,-0.390625 z"
       id="path13"
       transform="matrix(1.2201901,0,0,1.2201901,-2.7953814,-2.4402902)" /><path
       style="display:inline;fill:#f9f9f9;stroke:#f0fcd8;stroke-width:0;paint-order:stroke fill markers"
       d="m 21.414062,13.25 c -0.08594,-0.151042 -0.257812,-0.333333 -0.468752,-0.445313 -0.21094,-0.11198 -0.460934,-0.153645 -0.617186,-0.204428 -0.156251,-0.05078 -0.218749,-0.110676 -0.240884,-0.201823 -0.02214,-0.09115 -0.0039,-0.21354 -0.0065,-0.333333 -0.0026,-0.119794 -0.02604,-0.236977 -0.108071,-0.359375 -0.08203,-0.122397 -0.222655,-0.249999 -0.378906,-0.287759 -0.156251,-0.03776 -0.328124,0.01432 -0.446613,0.01563 -0.118488,0.0013 -0.183595,-0.04818 -0.214847,-0.122398 -0.03125,-0.07422 -0.02865,-0.173176 -0.03907,-0.282553 -0.01042,-0.109377 -0.03385,-0.229164 -0.100261,-0.348958 -0.06641,-0.119793 -0.17578,-0.239582 -0.307291,-0.315103 -0.131512,-0.07552 -0.285155,-0.106771 -0.410157,-0.07943 -0.125003,0.02735 -0.221352,0.113279 -0.342448,0.156248 -0.121095,0.04297 -0.266925,0.04297 -0.372395,-0.0091 C 17.2552,10.380204 17.190099,10.276042 17.167964,10.154947 17.145829,10.033852 17.166662,9.8958328 17.067703,9.7526033 16.968745,9.6093737 16.749999,9.4609383 16.513018,9.3710939 16.276037,9.2812494 16.020833,9.25 15.83854,9.3255226 c -0.182292,0.075523 -0.291665,0.2578107 -0.398437,0.3333312 -0.106772,0.075521 -0.210936,0.044271 -0.3125,-0.088544 C 15.02604,9.4374954 14.927083,9.2031249 14.809895,9.0390616 14.692706,8.8749983 14.557292,8.7812502 14.390623,8.7369793 14.223954,8.6927084 14.026042,8.6979167 13.919272,8.7942729 13.812501,8.8906292 13.796878,9.0781253 13.70573,9.0651014 13.614582,9.0520775 13.447918,8.838541 13.263019,8.7109368 13.078121,8.5833325 12.875,8.5416667 12.690103,8.528646 12.505205,8.5156253 12.338542,8.53125 12.192707,8.627606 12.046872,8.7239621 11.921875,8.9010417 11.8125,9.0026042 11.703125,9.1041667 11.609375,9.1302083 11.434893,9.0729153 11.260412,9.0156224 11.005208,8.8749999 10.804686,8.8255212 10.604164,8.7760425 10.458333,8.8177084 10.348957,8.958336 10.239582,9.0989636 10.166667,9.3385416 10.067707,9.4843755 9.9687476,9.6302093 9.84375,9.6822917 9.6562475,9.6249983 9.468745,9.567705 9.21875,9.4010417 9.0026023,9.3645843 8.7864546,9.3281269 8.6041667,9.421875 8.4687492,9.5468765 8.3333317,9.6718779 8.2447917,9.828125 8.179687,9.9765641 8.1145824,10.125003 8.0729167,10.265625 7.9765613,10.325521 c -0.096356,0.05989 -0.2473951,0.03906 -0.3958338,0.01302 -0.1484387,-0.02604 -0.2942692,-0.05729 -0.4505201,-0.02864 -0.156251,0.02865 -0.3229156,0.117187 -0.4166659,0.218751 -0.09375,0.101564 -0.1145832,0.216145 -0.1562504,0.359376 -0.041667,0.14323 -0.1041661,0.315102 -0.2291677,0.388018 -0.1250017,0.07292 -0.3124975,0.04687 -0.4661456,0.05729 -0.153648,0.01042 -0.2734367,0.05729 -0.4114587,0.153649 -0.1380221,0.09636 -0.2942693,0.242187 -0.3489562,0.395834 -0.054687,0.153648 -0.00781,0.315103 -0.052085,0.427083 -0.044272,0.111979 -0.1796864,0.174478 -0.3359382,0.260417 -0.1562517,0.08594 -0.3333316,0.195311 -0.4661448,0.312499 -0.1328132,0.117189 -0.2213534,0.242187 -0.2734365,0.346352 -0.052083,0.104165 -0.067709,0.187502 -0.075521,0.252608 -0.00781,0.06511 -0.00781,0.111977 -0.00781,0.158852 0,0 17.609375,0 17.609375,0 0,-0.119792 0,-0.239583 -0.08594,-0.390625 z"
       id="path10" /><path
       style="display:inline;opacity:1;fill:#33d9f8;fill-opacity:1;stroke:#f0fcd8;stroke-width:0;paint-order:stroke fill markers"
       d="m 8.8535664,22.45064 c 2.5779936,0 7.7339806,0 10.3709006,-0.07366 2.63692,-0.07366 2.754769,-0.22097 2.879986,-0.434574 0.125216,-0.213605 0.257799,-0.493502 0.41248,-0.876523 0.154681,-0.383021 0.331455,-0.869148 0.522965,-1.539434 0.19151,-0.670287 0.397746,-1.524691 0.574524,-2.401217 0.176778,-0.876527 0.324089,-1.775124 0.405111,-2.334919 0.08102,-0.559795 0.09575,-0.780762 0.110482,-1.001733 0,0 -22.9367763,0 -22.9367763,0 0,0 0.06457,1.15673 0.06457,1.15673 0.075521,0.463542 0.1510418,0.927084 0.3398469,1.561206 0.1888051,0.634123 0.4908822,1.438794 0.8815121,2.190103 0.3906299,0.75131 0.8697867,1.449212 1.4215302,2.040211 0.5517436,0.590998 1.1760386,1.075058 1.5839485,1.342874 0.4079099,0.267816 0.5994143,0.319374 0.6951684,0.345154 0.095754,0.02578 0.095758,0.02578 2.6737516,0.02578 z M 6.15625,22.6875 c 0,0 0,1.71875 0,1.71875 5.1875,0 10.375,0 12.953124,-0.02083 2.578124,-0.02083 2.546876,-0.0625 2.515626,-0.104166 0,0 0,-1.5625 0,-1.5625 z"
       id="path11"
       transform="matrix(0.95099005,0,0,0.95099005,0.49554595,0.68596299)" /></g><g
     id="g11"
     style="display:inline"
     transform="translate(-1.0057387,-2.1422637)"><path
       style="display:inline;fill:#000000;fill-opacity:1;stroke:#f0fcd8;stroke-width:0;paint-order:stroke fill markers"
       d="m 18.501021,17.04767 c 1.172962,0 3.518886,0 4.972243,0.112158 1.453357,0.112158 2.014124,0.336465 2.523503,0.640224 0.509378,0.303759 0.967338,0.68695 1.415966,1.224369 0.448627,0.53742 0.887894,1.229033 1.144919,1.986092 0.257024,0.75706 0.331793,1.579519 0.303752,2.135627 -0.02804,0.556108 -0.158885,0.845838 -0.509377,1.037438 -0.350492,0.191601 -0.920607,0.285062 -3.504907,0.331794 -2.584301,0.04673 -7.182594,0.04673 -9.508677,0.01612 -2.326082,-0.03061 -2.379863,-0.09183 -2.444378,-0.330083 -0.06451,-0.238254 -0.13976,-0.653536 -0.180042,-1.163342 -0.04028,-0.509806 -0.0456,-1.114097 0.152168,-1.799455 0.197767,-0.685358 0.5986,-1.451716 1.140426,-2.126735 0.541827,-0.675019 1.245491,-1.276509 1.804939,-1.595276 0.559449,-0.318767 1.045176,-0.39498 1.280841,-0.431956 0.235666,-0.03698 0.235662,-0.03698 1.408624,-0.03698 z"
       id="path2" /><path
       id="path1"
       style="display:inline;fill:#fb931f;fill-opacity:1;stroke:#f0fcd8;stroke-width:0;paint-order:stroke fill markers"
       d="m 18.72178,17.048356 c 0.0083,0.05193 0.0069,0.133939 0.0065,0.264757 -0.001,0.348848 -0.0012,1.04188 -0.01085,1.40842 -0.0097,0.366539 -0.02806,0.406994 -0.06076,0.453559 -0.0327,0.04656 -0.08133,0.103743 -0.145399,0.141059 -0.06406,0.03732 -0.156854,0.06138 -0.234375,0.07378 -0.07752,0.01241 -0.14647,0.01452 -0.203993,0.0022 -0.05752,-0.01235 -0.110518,-0.0392 -0.15408,-0.06944 -0.04356,-0.03024 -0.0801,-0.06478 -0.110677,-0.108507 -0.03058,-0.04372 -0.05824,-0.101393 -0.07162,-0.47309 -0.01266,-0.351812 -0.01403,-1.020678 -0.01519,-1.690538 -0.30627,0.0023 -0.458129,0.0072 -0.568576,0.02387 -0.17577,0.02656 -0.528539,0.07961 -1.124132,0.401476 -0.595594,0.321865 -1.435159,0.911772 -2.016059,1.610243 -0.580901,0.698471 -0.902206,1.506054 -1.061198,2.198351 -0.158993,0.692297 -0.1553,1.269135 -0.134549,1.757812 0.02075,0.488678 0.05846,0.889497 0.119358,1.119792 0.0609,0.230295 0.144837,0.291151 2.469618,0.329861 2.324781,0.03871 6.889803,0.05397 9.457465,0.01519 2.567663,-0.03878 3.139092,-0.13175 3.489584,-0.323351 0.35049,-0.1916 0.479772,-0.481218 0.507812,-1.037326 0.02804,-0.556108 -0.0468,-1.378357 -0.303819,-2.135417 -0.257025,-0.757059 -0.695036,-1.448257 -1.143664,-1.985677 -0.448627,-0.53742 -0.907722,-0.922369 -1.4171,-1.226128 -0.448712,-0.267581 -0.938554,-0.472701 -2.042101,-0.594618 1.31e-4,0.03211 1.2e-4,0.06737 0,0.108507 -0.001,0.348848 -0.0012,1.04188 -0.01085,1.40842 -0.0097,0.366539 -0.02806,0.406994 -0.06076,0.453559 -0.0327,0.04656 -0.08133,0.103743 -0.145399,0.141059 -0.06406,0.03732 -0.156854,0.06138 -0.234375,0.07378 -0.07752,0.01241 -0.14647,0.01452 -0.203993,0.0022 -0.05752,-0.01235 -0.110517,-0.0392 -0.15408,-0.06944 -0.04356,-0.03024 -0.0801,-0.06478 -0.110677,-0.108507 -0.03058,-0.04372 -0.05823,-0.101393 -0.07161,-0.47309 -0.0122,-0.33881 -0.01402,-0.972222 -0.01519,-1.616753 -0.504531,-0.02697 -1.07007,-0.04293 -1.636285,-0.05425 0.0054,0.05233 0.0047,0.129039 0.0043,0.243056 -10e-4,0.348848 -0.0012,1.04188 -0.01085,1.40842 -0.0097,0.366539 -0.02806,0.406994 -0.06076,0.453559 -0.0327,0.04656 -0.08133,0.103743 -0.1454,0.141059 -0.06407,0.03732 -0.156854,0.06138 -0.234375,0.07378 -0.07752,0.01241 -0.14647,0.01452 -0.203993,0.0022 -0.05752,-0.01235 -0.110517,-0.0392 -0.15408,-0.06944 -0.04356,-0.03024 -0.0801,-0.06478 -0.110677,-0.108507 -0.03058,-0.04372 -0.05823,-0.101393 -0.07161,-0.47309 -0.01262,-0.350665 -0.01403,-1.01637 -0.01519,-1.684028 -0.590281,-0.0054 -1.153421,-0.0086 -1.586372,-0.0087 z"
       transform="matrix(0.9,0,0,0.9,2.0800854,2.080308)" /></g></svg>
