<?xml version="1.0" encoding="UTF-8" standalone="no"?>
<!-- Created with Inkscape (http://www.inkscape.org/) -->

<svg
   width="20.142975"
   height="21.844315"
   viewBox="0 0 20.142975 21.844315"
   version="1.1"
   id="svg1"
   xml:space="preserve"
   xmlns="http://www.w3.org/2000/svg"
   xmlns:svg="http://www.w3.org/2000/svg"><defs
     id="defs1"><style
       id="style1">.cls-1{fill:#391410;}.cls-1,.cls-2{fill-rule:evenodd;}.cls-2{fill:#ea6d36;}</style><style
       id="style1-1">.cls-1{fill:#391410;}.cls-1,.cls-2{fill-rule:evenodd;}.cls-2{fill:#ea6d36;}</style><style
       id="style1-14">.cls-1{fill:#d3141b;}.cls-1,.cls-2,.cls-3,.cls-4,.cls-5,.cls-6{fill-rule:evenodd;}.cls-2{fill:#7db820;}.cls-3{fill:#537918;}.cls-4{fill:#543429;}.cls-5{fill:#ebbb19;}.cls-6{fill:#f09418;}</style><style
       id="style1-89">.cls-1{fill:#391410;}.cls-1,.cls-2{fill-rule:evenodd;}.cls-2{fill:#ea6d36;}</style></defs><style
     type="text/css"
     id="style1-9">.st0{fill-rule:evenodd;clip-rule:evenodd;fill:#5E990B;} .st1{fill-rule:evenodd;clip-rule:evenodd;fill:#CCDB39;} .st2{fill-rule:evenodd;clip-rule:evenodd;fill:#8C6239;} .st3{fill-rule:evenodd;clip-rule:evenodd;fill:#704828;} .st4{fill-rule:evenodd;clip-rule:evenodd;fill:#7F573C;} .st5{fill-rule:evenodd;clip-rule:evenodd;fill:#537918;}</style><style
     type="text/css"
     id="style1-8">.st0{fill-rule:evenodd;clip-rule:evenodd;fill:#D3141B;} .st1{fill-rule:evenodd;clip-rule:evenodd;fill:#7DB820;} .st2{fill-rule:evenodd;clip-rule:evenodd;fill:#537918;} .st3{fill-rule:evenodd;clip-rule:evenodd;fill:#543429;} .st4{fill-rule:evenodd;clip-rule:evenodd;fill:#FFFFFF;}</style><style
     type="text/css"
     id="style1-3">.st0{fill-rule:evenodd;clip-rule:evenodd;}</style><g
     id="g6"
     transform="translate(-192.89445,-214.40718)"><path
       style="display:inline;fill:#4c6734;fill-opacity:1;stroke:#f0fcd8;stroke-width:0;paint-order:stroke fill markers"
       d="m 211.64808,215.71252 c 0.33944,0.42645 0.55647,0.93946 0.69951,1.4654 0.14304,0.52594 0.21547,1.06804 0.29182,1.60771 0.177,1.25108 0.37741,2.50364 0.39653,3.76703 0.0283,1.86724 -0.3462,3.73956 -1.09046,5.4523 -0.41137,2.2576 -1.62346,4.36093 -3.37051,5.84882 -1.95696,1.66666 -4.57199,2.53834 -7.13755,2.37918 -2.1678,-0.23906 -4.25086,-1.19232 -5.84882,-2.67658 -0.84689,-0.78663 -1.56228,-1.72303 -2.04266,-2.77433 -0.48037,-1.05131 -0.721,-2.21932 -0.63392,-3.37189 0.12066,-1.59704 0.86164,-3.09947 1.85645,-4.35464 0.99481,-1.25518 2.23727,-2.28917 3.49671,-3.27857 2.16755,-1.70279 4.43291,-3.31384 6.93928,-4.46096 1.05694,-0.48375 2.17853,-0.88789 3.34074,-0.90803 0.58111,-0.0101 1.16714,0.0781 1.70739,0.29239 0.54025,0.21428 1.03354,0.55744 1.39549,1.01217 z"
       id="path5" /><path
       style="display:inline;fill:#b8c670;fill-opacity:1;stroke:#f0fcd8;stroke-width:0;paint-order:stroke fill markers"
       d="m 209.86369,215.71252 c 0.61154,0.27491 1.13694,0.76609 1.38786,1.38785 0.18374,0.4553 0.21613,0.96118 0.15917,1.44884 -0.057,0.48766 -0.19991,0.96099 -0.35744,1.42601 -0.67451,1.99109 -1.62438,3.8759 -2.57744,5.74969 -0.9872,1.9409 -2.02053,3.92915 -3.66791,5.35316 -1.03289,0.89283 -2.29202,1.5342 -3.63458,1.78229 -1.34255,0.24809 -2.76613,0.0937 -3.99863,-0.49357 -1.12062,-0.534 -2.08161,-1.43944 -2.57745,-2.57745 -0.33628,-0.77181 -0.45336,-1.63277 -0.37238,-2.47075 0.081,-0.83799 0.35673,-1.65265 0.76891,-2.38674 0.58803,-1.04726 1.44356,-1.9235 2.37919,-2.67658 0.97875,-0.78779 2.05025,-1.4513 3.07311,-2.18092 1.38288,-0.98642 2.67665,-2.09359 4.06443,-3.07311 0.78587,-0.55468 1.61322,-1.07351 2.53145,-1.36007 0.91824,-0.28655 1.94437,-0.32304 2.82171,0.0714 z"
       id="path4" /><path
       style="display:inline;fill:#814329;fill-opacity:1;stroke:#f0fcd8;stroke-width:0;paint-order:stroke fill markers"
       d="m 200.39653,221.61091 -1.63569,1.53655 1.68526,-1.58612 c 0.40242,-0.30194 0.88752,-0.49252 1.38785,-0.54523 0.63816,-0.0672 1.29798,0.0933 1.83396,0.4461 0.50035,0.32881 0.88936,0.82392 1.09045,1.38785 0.16239,0.45541 0.20301,0.95362 0.11652,1.42932 -0.0865,0.4757 -0.29987,0.92773 -0.61218,1.29683 -0.51875,0.74634 -1.06446,1.47394 -1.63569,2.18092 -0.46688,0.57783 -0.97001,1.15721 -1.63568,1.48698 -0.76684,0.37989 -1.71039,0.37767 -2.47832,0 -0.55507,-0.27298 -1.01574,-0.73365 -1.28872,-1.28872 -0.21805,-0.94501 -0.1835,-1.94709 0.0991,-2.87484 0.46431,-1.52429 1.61605,-2.82464 3.07311,-3.46964 z"
       id="path6" /></g></svg>
