<?xml version="1.0" encoding="UTF-8" standalone="no"?>
<!-- Created with Inkscape (http://www.inkscape.org/) -->

<svg
   width="31.999998"
   height="31.999998"
   viewBox="0 0 8.466666 8.4666661"
   version="1.1"
   id="svg1"
   xml:space="preserve"
   xmlns="http://www.w3.org/2000/svg"
   xmlns:svg="http://www.w3.org/2000/svg"><defs
     id="defs1" /><g
     id="layer1"
     style="display:inline"
     transform="matrix(1.0615201,0,0,1.0615201,1.3564898,95.721795)"><path
       style="display:inline;opacity:1;fill:#dd6155;fill-opacity:1;stroke:#f0fcd8;stroke-width:0;paint-order:stroke fill markers"
       d="m 130.93432,18.772848 c -2.18223,0.139886 -4.78414,0.419662 -7.41404,0.965229 -2.6299,0.545566 -5.28771,1.356898 -7.86165,2.294152 -2.57395,0.937253 -5.06389,2.000374 -7.69379,3.091505 -2.62991,1.09113 -5.39962,2.210205 -7.41401,2.923632 -2.014383,0.713427 -3.273342,1.021172 -4.53234,1.244993 -1.258997,0.223821 -2.517953,0.363705 -3.832906,0.363704 -1.314953,-2e-6 -2.68582,-0.139886 -4.686231,-0.321741 -2.000411,-0.181855 -4.630237,-0.40567 -7.288118,-0.461624 -2.657882,-0.05595 -5.343662,0.05595 -7.931598,0.293765 -2.587935,0.237811 -5.077876,0.601511 -7.400023,1.077133 -2.322148,0.475623 -4.476364,1.063136 -6.434802,1.734602 -1.958437,0.671465 -3.720979,1.42684 -5.301717,2.29415 -1.580739,0.86731 -2.979582,1.8465 -4.112677,2.82572 -1.133094,0.97922 -2.000376,1.958409 -2.671839,2.92364 -0.671463,0.965231 -1.14707,1.916443 -1.468812,2.797739 -0.321742,0.881297 -0.489603,1.692626 -0.601513,2.489991 -0.11191,0.797364 -0.167864,1.580716 -0.06994,2.629883 0.09792,1.049166 0.349716,2.364079 0.81135,3.748975 0.461634,1.384897 1.13308,2.839696 2.042357,4.378469 0.909277,1.538774 2.056329,3.161433 3.245381,4.63026 1.189052,1.468826 2.420034,2.783739 3.776954,4.084702 1.356919,1.300963 2.839694,2.5879 4.812126,3.93083 1.972433,1.34293 4.434397,2.741773 6.980368,3.972789 2.545971,1.231017 5.175796,2.294138 8.533127,3.273356 3.357331,0.979219 7.441953,1.874478 11.666587,2.434029 4.224633,0.559551 8.589025,0.783366 12.617811,0.713419 4.028786,-0.06995 7.721726,-0.433646 11.876416,-1.063148 4.1547,-0.629501 8.77088,-1.524761 12.71573,-2.53196 3.94485,-1.007198 7.21814,-2.126271 9.97394,-3.119478 2.7558,-0.993208 4.99395,-1.860491 7.52593,-3.021566 2.53198,-1.161076 5.35765,-2.615874 7.91761,-4.224593 2.55995,-1.608719 4.85405,-3.37126 6.58867,-4.896045 1.73461,-1.524784 2.90964,-2.81172 4.26656,-4.770166 1.35692,-1.958446 2.89564,-4.588266 3.77693,-6.476755 0.88129,-1.888489 1.10511,-3.035538 1.25899,-4.154645 0.15387,-1.119107 0.23781,-2.210206 0.19584,-3.315326 -0.042,-1.105119 -0.20983,-2.224193 -0.46163,-3.273355 -0.2518,-1.049163 -0.58752,-2.028357 -1.03517,-3.07752 -0.44764,-1.049163 -1.00718,-2.168237 -1.79056,-3.37128 -0.78338,-1.203043 -1.79054,-2.489976 -2.86769,-3.679029 -1.07714,-1.189053 -2.22419,-2.28015 -3.51116,-3.273357 -1.28698,-0.993207 -2.7138,-1.888466 -4.08471,-2.601895 -1.3709,-0.713429 -2.68581,-1.244989 -4.12667,-1.72061 -1.44085,-0.475621 -3.00755,-0.895273 -4.74217,-1.203027 -1.73462,-0.307754 -3.63705,-0.503592 -5.46959,-0.601513 -1.83254,-0.09792 -3.59508,-0.09792 -5.77732,0.04197 z"
       id="path25"
       transform="matrix(0.06461083,0,0,0.06461083,-3.9792301,-89.978256)" /><path
       style="display:inline;opacity:1;fill:#d6d2d3;fill-opacity:1;stroke:#f0fcd8;stroke-width:0;paint-order:stroke fill markers"
       d="m 130.93432,18.772848 c -2.18223,0.139886 -4.78414,0.419662 -7.41404,0.965229 -2.6299,0.545566 -5.28771,1.356898 -7.86165,2.294152 -2.57395,0.937253 -5.06389,2.000374 -7.69379,3.091505 -2.62991,1.09113 -5.39962,2.210205 -7.41401,2.923632 -2.014383,0.713427 -3.273342,1.021172 -4.53234,1.244993 -1.258997,0.223821 -2.517953,0.363705 -3.832906,0.363704 -1.314953,-2e-6 -2.68582,-0.139886 -4.686231,-0.321741 -2.000411,-0.181855 -4.630237,-0.40567 -7.288118,-0.461624 -2.657882,-0.05595 -5.343662,0.05595 -7.931598,0.293765 -2.587935,0.237811 -5.077876,0.601511 -7.400023,1.077133 -2.322148,0.475623 -4.476364,1.063136 -6.434802,1.734602 -1.958437,0.671465 -3.720979,1.42684 -5.301717,2.29415 -1.580739,0.86731 -2.979582,1.8465 -4.112677,2.82572 -1.133094,0.97922 -2.000376,1.958409 -2.671839,2.92364 -0.671463,0.965231 -1.14707,1.916443 -1.468812,2.797739 -0.321742,0.881297 -0.489603,1.692626 -0.601513,2.489991 -0.11191,0.797364 -0.167864,1.580716 -0.06994,2.629883 0.09792,1.049166 0.349716,2.364079 0.81135,3.748975 0.461634,1.384897 1.13308,2.839696 2.042357,4.378469 0.909277,1.538774 2.056329,3.161433 3.245381,4.63026 1.189052,1.468826 2.420034,2.783739 3.776954,4.084702 1.356919,1.300963 2.839694,2.5879 4.812126,3.93083 1.972433,1.34293 4.434397,2.741773 6.980368,3.972789 2.545971,1.231017 5.175796,2.294138 8.533127,3.273356 3.357331,0.979219 7.441953,1.874478 11.666587,2.434029 4.224633,0.559551 8.589025,0.783366 12.617811,0.713419 4.028786,-0.06995 7.721726,-0.433646 11.876416,-1.063148 4.1547,-0.629501 8.77088,-1.524761 12.71573,-2.53196 3.94485,-1.007198 7.21814,-2.126271 9.97394,-3.119478 2.7558,-0.993208 4.99395,-1.860491 7.52593,-3.021566 2.53198,-1.161076 5.35765,-2.615874 7.91761,-4.224593 2.55995,-1.608719 4.85405,-3.37126 6.58867,-4.896045 1.73461,-1.524784 2.90964,-2.81172 4.26656,-4.770166 1.35692,-1.958446 2.89564,-4.588266 3.77693,-6.476755 0.88129,-1.888489 1.10511,-3.035538 1.25899,-4.154645 0.15387,-1.119107 0.23781,-2.210206 0.19584,-3.315326 -0.042,-1.105119 -0.20983,-2.224193 -0.46163,-3.273355 -0.2518,-1.049163 -0.58752,-2.028357 -1.03517,-3.07752 -0.44764,-1.049163 -1.00718,-2.168237 -1.79056,-3.37128 -0.78338,-1.203043 -1.79054,-2.489976 -2.86769,-3.679029 -1.07714,-1.189053 -2.22419,-2.28015 -3.51116,-3.273357 -1.28698,-0.993207 -2.7138,-1.888466 -4.08471,-2.601895 -1.3709,-0.713429 -2.68581,-1.244989 -4.12667,-1.72061 -1.44085,-0.475621 -3.00755,-0.895273 -4.74217,-1.203027 -1.73462,-0.307754 -3.63705,-0.503592 -5.46959,-0.601513 -1.83254,-0.09792 -3.59508,-0.09792 -5.77732,0.04197 z"
       id="path26"
       transform="matrix(0.0620649,0,0,0.06206491,-3.7132068,-89.853786)" /><path
       style="display:inline;opacity:1;fill:#aa3a2c;fill-opacity:1;stroke:#f0fcd8;stroke-width:0;paint-order:stroke fill markers"
       d="m 44.042676,46.490456 c -0.07235,0.743772 -0.217057,2.231315 -0.477352,4.874293 -0.260294,2.642979 -0.636163,6.441245 -0.893344,8.993268 -0.25718,2.552022 -0.395659,3.857675 -0.415441,5.064452 -0.01978,1.206776 0.07913,2.314602 0.267071,3.442246 0.187941,1.127643 0.464898,2.275036 0.900131,3.481813 0.435233,1.206778 1.028712,2.472865 2.017877,3.986283 0.989165,1.513419 2.373949,3.274073 3.709316,4.807271 1.335367,1.533197 2.621237,2.83885 3.956605,4.045627 1.335368,1.206776 2.720151,2.314603 4.154435,3.353221 1.434284,1.038618 2.91798,2.007966 4.747932,2.997128 1.829953,0.989161 4.006043,1.998076 5.756853,2.730051 1.75081,0.731976 3.076245,1.186975 5.074357,1.731015 1.998112,0.544039 4.668769,1.177084 7.171344,1.612313 2.502574,0.435229 4.836927,0.672621 6.943837,0.840778 2.10691,0.168157 3.986259,0.267071 6.46906,0.26707 2.482801,-10e-7 5.56889,-0.09892 8.526483,-0.336315 2.95759,-0.2374 5.7865,-0.613269 8.24951,-0.999043 2.46301,-0.385773 4.55997,-0.781426 6.71634,-1.246333 2.15637,-0.464906 4.37202,-0.999036 6.52839,-1.582643 2.15638,-0.583607 4.25333,-1.216648 6.84494,-2.136571 2.59161,-0.919924 5.6777,-2.126663 7.99233,-3.125714 2.31463,-0.999051 3.85767,-1.790354 5.58871,-2.799301 1.73103,-1.008946 3.64994,-2.235467 5.32162,-3.432352 1.67168,-1.196885 3.09603,-2.36406 4.41162,-3.541163 1.31558,-1.177103 2.52232,-2.364061 3.7291,-3.778564 1.20677,-1.414502 2.41351,-3.056457 3.11581,-4.104963 0.7023,-1.048505 0.90013,-1.503506 1.15731,-2.522347 0.25718,-1.018841 0.5737,-2.601451 0.89023,-4.688587 0.31654,-2.087136 0.63306,-4.678661 0.91003,-7.092211 0.27696,-2.41355 0.51435,-4.648988 0.7041,-6.425701 0.18974,-1.776713 0.33182,-3.094477 0.37202,-3.824416 0.0402,-0.729939 -0.0215,-0.871728 -0.0574,-0.902575 -0.0359,-0.03085 -0.0461,0.04925 -0.0981,0.222773 -0.052,0.173527 -0.1457,0.440478 -0.23945,0.707413 -0.0937,0.266935 -0.18749,0.533887 -0.32941,0.929049 -0.14193,0.395162 -0.33204,0.918541 -1.04496,2.266293 -0.71292,1.347753 -1.9486,3.519773 -3.45174,5.500985 -1.50314,1.981211 -3.27372,3.771575 -5.56858,5.61636 -2.29486,1.844786 -5.11389,3.74392 -7.8687,5.331519 -2.75481,1.587598 -5.44525,2.86358 -8.27425,4.035734 -2.829,1.172155 -5.7964,2.240419 -9.26836,3.269146 -3.47196,1.028727 -7.44827,2.017859 -11.10816,2.799293 -3.65989,0.781434 -7.00316,1.35513 -10.28965,1.708753 -3.28648,0.353622 -6.51593,0.487153 -9.424091,0.494571 -2.908162,0.0074 -5.494688,-0.111274 -7.798432,-0.302941 -2.303744,-0.191667 -4.324431,-0.456284 -6.511346,-0.819555 -2.186915,-0.363271 -4.539848,-0.825163 -7.006333,-1.486644 -2.466485,-0.661481 -5.046471,-1.522539 -7.315744,-2.447654 -2.269272,-0.925114 -4.227752,-1.914246 -6.121995,-2.992432 -1.894244,-1.078186 -3.724137,-2.245361 -5.371336,-3.499899 -1.6472,-1.254538 -3.111582,-2.596337 -4.371874,-3.884607 -1.260292,-1.28827 -2.316347,-2.522862 -3.256659,-3.719757 -0.940312,-1.196896 -1.764772,-2.355957 -2.509899,-3.665408 -0.745126,-1.309452 -1.41083,-2.769135 -1.904443,-4.016414 -0.493613,-1.247279 -0.815075,-2.281997 -0.964668,-3.309769 -0.149593,-1.027771 -0.1273,-2.048495 -0.105007,-3.069239 0.01834,-0.124683 0.03669,-0.249377 0.02156,-0.263988 -0.01512,-0.01461 -0.06372,0.08085 -0.09093,0.126639 -0.02721,0.04579 -0.03308,0.04187 -0.036,0.03993 -0.0029,-0.0019 -0.0029,-0.002 -0.07528,0.741822 z"
       id="path27"
       transform="matrix(0.06461083,0,0,0.06461083,-3.9792301,-89.978256)" /><path
       style="display:inline;opacity:1;fill:#dd6155;fill-opacity:1;stroke:#f0fcd8;stroke-width:0;paint-order:stroke fill markers"
       d="m 57.519139,39.486913 c 1.651883,-0.910019 4.38194,-2.156349 7.151591,-3.096049 2.769651,-0.9397 5.578785,-1.572744 8.388002,-1.909056 2.809218,-0.336311 5.618349,-0.375876 7.932982,-0.217608 2.314633,0.158268 4.134633,0.514355 5.697505,1.038612 1.562873,0.524257 2.868526,1.216649 4.154435,2.225597 1.28591,1.008947 2.551997,2.334382 3.649964,3.630183 1.097968,1.295801 2.027751,2.561888 2.759728,3.68953 0.731978,1.127643 1.266108,2.116774 1.780472,3.313662 0.514363,1.196887 1.008932,2.601455 1.454052,4.243464 0.44512,1.642009 0.84078,3.521357 1.19687,5.26228 0.3561,1.740922 0.67262,3.343313 0.85067,4.827055 0.17805,1.483742 0.21761,2.848741 0.18794,3.729087 -0.0297,0.880347 -0.12859,1.276003 -0.38578,1.85961 -0.25718,0.583607 -0.67262,1.355132 -1.32546,2.057434 -0.65285,0.702303 -1.54307,1.335349 -2.670716,1.879387 -1.127646,0.544038 -2.492648,0.999038 -4.055524,1.266109 -1.562877,0.267071 -3.323531,0.346201 -5.311747,0.28685 -1.988215,-0.05935 -4.20387,-0.257177 -6.251432,-0.603385 -2.047561,-0.346208 -3.92691,-0.840774 -5.875558,-1.533188 -1.948648,-0.692415 -3.966477,-1.582633 -5.816206,-2.552011 -1.849729,-0.969378 -3.531253,-2.017858 -5.23261,-3.224636 -1.701356,-1.206778 -3.422444,-2.57178 -4.896293,-3.897256 -1.473848,-1.325476 -2.700369,-2.611345 -3.64007,-3.917038 -0.9397,-1.305692 -1.592528,-2.631131 -2.176132,-4.045631 -0.583604,-1.414501 -1.097952,-2.917979 -1.444157,-4.065403 -0.346205,-1.147424 -0.524248,-1.938729 -0.54403,-2.848758 -0.01978,-0.910029 0.118697,-1.938727 0.415447,-2.848753 0.296749,-0.910027 0.75175,-1.701332 1.266114,-2.383853 0.514365,-0.68252 1.088061,-1.256216 2.739943,-2.166235 z"
       id="path24"
       transform="matrix(0.06461083,0,0,0.06461083,-3.9792301,-89.978256)" /><path
       id="path20"
       style="display:inline;fill:#dd6155;fill-opacity:1;stroke:#f0fcd8;stroke-width:0;paint-order:stroke fill markers"
       d="m 4.7851678,-88.405221 c -0.110484,0.0021 -0.2278025,0.01161 -0.3519488,0.02982 -0.1655284,0.02429 -0.3432018,0.06392 -0.5509113,0.111853 -0.2077088,0.04792 -0.445427,0.104179 -0.6320457,0.157224 -0.1866178,0.05305 -0.3221171,0.102879 -0.4371561,0.155925 -0.115039,0.05305 -0.2096091,0.109306 -0.2690452,0.15085 -0.059437,0.04153 -0.083719,0.06838 -0.103371,0.09138 -0.019653,0.023 -0.034694,0.04216 -0.046677,0.06215 -0.011983,0.01997 -0.020933,0.04076 -0.026845,0.0636 -0.00591,0.02285 -0.00879,0.04778 -0.00608,0.07893 0.00272,0.03115 0.011045,0.06855 0.02207,0.104972 0.011025,0.03643 0.024762,0.07187 0.051285,0.132587 0.026523,0.06071 0.06581,0.14669 0.114222,0.231849 0.048412,0.08516 0.1059417,0.169511 0.1692131,0.251316 0.063273,0.0818 0.1323107,0.161045 0.2102817,0.240931 0.077971,0.07989 0.1648778,0.16042 0.2793617,0.243737 0.114484,0.08332 0.2565167,0.169439 0.3829005,0.241867 0.1263839,0.07243 0.2371198,0.131166 0.3360893,0.176357 0.098969,0.04519 0.1861787,0.07684 0.2502468,0.09837 0.064068,0.02152 0.1049739,0.03292 0.144606,0.0399 0.039632,0.0069 0.077982,0.0095 0.1521186,0.0025 0.074135,-0.0069 0.1840561,-0.02364 0.3035686,-0.06007 0.1195124,-0.03643 0.2486297,-0.09268 0.3636684,-0.157227 0.1150385,-0.06455 0.2159839,-0.137419 0.3118497,-0.215389 0.095865,-0.07797 0.1866189,-0.161036 0.2620327,-0.242201 0.075415,-0.08117 0.1354954,-0.16041 0.1936543,-0.25372 0.058157,-0.09331 0.1143969,-0.200688 0.1540215,-0.30614 0.039625,-0.105451 0.062638,-0.208982 0.076059,-0.303568 0.013418,-0.09459 0.017263,-0.180228 0.00832,-0.266505 -0.00895,-0.08628 -0.030669,-0.173191 -0.077962,-0.263304 -0.047295,-0.09011 -0.120153,-0.183438 -0.2032365,-0.260131 -0.083083,-0.07669 -0.1764083,-0.136745 -0.2735528,-0.184041 -0.097144,-0.04729 -0.1981115,-0.08181 -0.313151,-0.107375 -0.115039,-0.02556 -0.2441281,-0.04217 -0.3853707,-0.04601 -0.03531,-8.91e-4 -0.071385,-0.0011 -0.1082126,-6.5e-4 z m 0.00891,0.29275 a 0.5043326,0.34842338 0 0 1 0.5043343,0.348444 0.5043326,0.34842338 0 0 1 -0.5043343,0.348408 0.5043326,0.34842338 0 0 1 -0.5043341,-0.348408 0.5043326,0.34842338 0 0 1 0.5043341,-0.348444 z m 0.024407,0.143704 a 0.26572368,0.18302396 0 0 0 -0.2657065,0.183038 0.26572368,0.18302396 0 0 0 0.2657065,0.183034 0.26572368,0.18302396 0 0 0 0.2657393,-0.183034 0.26572368,0.18302396 0 0 0 -0.2657393,-0.183038 z" /><path
       style="display:inline;fill:#dd6155;fill-opacity:1;stroke:#f0fcd8;stroke-width:0;paint-order:stroke fill markers"
       d="m 107.797,61.305522 c -0.18186,0.118904 -0.54556,0.356709 -0.83233,0.692442 -0.28677,0.335734 -0.4966,0.769378 -0.61202,1.147075 -0.11541,0.377698 -0.13641,0.699432 -0.12243,1.58773 0.014,0.888298 0.0629,2.343094 0.1014,3.38526 0.0385,1.042165 0.0664,1.671645 0.0594,2.056339 -0.007,0.384695 -0.049,0.524564 -0.0769,0.716914 -0.028,0.19235 -0.042,0.437148 0.0419,0.66097 0.0839,0.223823 0.26578,0.426655 0.65746,0.559548 0.39169,0.132892 0.9932,0.195841 1.9934,0.19584 1.00021,-1e-6 2.39905,-0.06295 3.89935,-0.23781 1.50031,-0.174861 3.10199,-0.461624 4.64076,-0.800854 1.53877,-0.339229 3.01455,-0.730906 3.86087,-0.982704 0.84632,-0.251799 1.06314,-0.363705 1.2485,-0.566545 0.18535,-0.202841 0.33922,-0.496595 0.33572,-0.797358 -0.003,-0.300762 -0.16436,-0.608506 -0.39168,-0.940741 -0.22732,-0.332235 -0.52108,-0.688942 -1.09812,-1.206532 -0.57705,-0.517589 -1.43734,-1.196028 -2.50399,-1.870988 -1.06665,-0.674961 -2.3396,-1.346407 -3.48668,-1.877979 -1.14708,-0.531573 -2.16824,-0.92325 -2.88866,-1.168053 -0.72042,-0.244804 -1.14008,-0.342725 -1.864,-0.430156 -0.72393,-0.08743 -1.75208,-0.164366 -2.26617,-0.202834 -0.51408,-0.03847 -0.51397,-0.03847 -0.69582,0.08044 z"
       id="path19"
       transform="matrix(0.06461083,0,0,0.06461083,-3.9792301,-89.978256)" /></g></svg>
