<?xml version="1.0" encoding="UTF-8" standalone="no"?>
<!-- Created with Inkscape (http://www.inkscape.org/) -->

<svg
   width="1024"
   height="1024"
   viewBox="0 0 568.88889 568.88889"
   version="1.1"
   id="svg1"
   xml:space="preserve"
   xmlns:xlink="http://www.w3.org/1999/xlink"
   xmlns="http://www.w3.org/2000/svg"
   xmlns:svg="http://www.w3.org/2000/svg"
   xmlns:rdf="http://www.w3.org/1999/02/22-rdf-syntax-ns#"
   xmlns:cc="http://creativecommons.org/ns#"
   xmlns:dc="http://purl.org/dc/elements/1.1/"><defs
     id="defs1"><linearGradient
       id="linearGradient73"><stop
         style="stop-color:#3784b6;stop-opacity:1;"
         offset="0.15322581"
         id="stop73" /><stop
         style="stop-color:#b2aaa1;stop-opacity:1;"
         offset="0.53830642"
         id="stop75" /><stop
         style="stop-color:#f39042;stop-opacity:1;"
         offset="1"
         id="stop74" /></linearGradient><linearGradient
       xlink:href="#linearGradient73"
       id="linearGradient74-9"
       x1="303.47675"
       y1="171.8165"
       x2="374.48151"
       y2="171.8165"
       gradientUnits="userSpaceOnUse" /></defs><metadata
     id="metadata1"><rdf:RDF><cc:Work
         rdf:about=""><dc:format>image/svg+xml</dc:format><dc:type
           rdf:resource="http://purl.org/dc/dcmitype/StillImage" /></cc:Work></rdf:RDF></metadata><g
     id="layer1"
     style="fill:#000000"><rect
       style="fill:#ffffff;stroke:#f0fcd8;stroke-width:0;paint-order:stroke fill markers"
       id="rect1"
       width="568.88892"
       height="568.88892"
       x="-1.3007812e-05"
       y="-1.3007812e-05" /></g><g
     id="g79"
     transform="matrix(0.73983206,0,0,0.80892706,24.135069,113.06267)"><path
       style="opacity:1;fill:#3784b6;fill-opacity:1;stroke:#f0fcd8;stroke-width:0;stroke-dasharray:none;stroke-opacity:1;paint-order:stroke fill markers"
       d="m 314.06041,247.1539 -2.28203,10.45104 -107.99134,0.0165 c -0.40324,-0.0124 -0.806,-0.04 -1.20716,-0.0827 -1.12337,-0.11967 -2.23401,-0.35846 -3.30729,-0.71107 -4.36466,-1.24589 -8.3691,-3.72815 -11.42648,-7.08299 -3.05737,-3.35483 -5.15823,-7.57189 -5.99468,-12.03315 -0.0854,-0.45523 -0.15785,-0.91291 -0.21497,-1.37253 -0.041,-0.32987 -0.0741,-0.66073 -0.0992,-0.99219 V 113.72116 l 0.23151,-1.55442 c 0.14125,-1.33413 0.43595,-2.65194 0.87643,-3.91915 0.37148,-1.0687 0.84539,-2.0992 1.35599,-3.10885 0.49271,-0.97427 1.02092,-1.93192 1.62057,-2.84427 1.32963,-2.02299 3.0055,-3.811133 4.89479,-5.32474 1.79036,-1.434351 3.7734,-2.625213 5.87045,-3.555338 1.96059,-0.869598 4.03478,-1.514841 6.1681,-1.736328 0.19261,-0.02 0.38557,-0.03654 0.57877,-0.04961 H 340.8405 l -4.94617,10.463436 -131.90056,-0.0661 c -0.57992,0.01 -1.15864,0.089 -1.71979,0.23566 -0.70047,0.18305 -1.37007,0.46962 -2.01745,0.79375 -1.53324,0.76766 -2.96213,1.75674 -4.16719,2.97656 -1.13334,1.14722 -2.06124,2.49116 -2.77812,3.93568 -0.43511,0.87675 -0.79448,1.79386 -1.02526,2.74505 -0.10066,0.41488 -0.17675,0.83572 -0.22773,1.25958 v 120.35647 0.93545 c 0.0189,0.39303 0.0698,0.78451 0.15201,1.1693 0.27123,1.26912 0.87668,2.44132 1.54348,3.55469 0.38126,0.63659 0.78531,1.26069 1.23946,1.8475 0.59167,0.76449 1.26744,1.46384 2.01121,2.08136 0.94387,0.67758 1.94669,1.27301 2.99342,1.77734 0.92639,0.44635 1.89241,0.82295 2.89987,1.02899 1.051,0.21495 2.13113,0.2319 3.20389,0.23386 z"
       id="path78-3" /><path
       id="path5-8"
       style="display:inline;opacity:1;fill:#f39042;fill-opacity:1;stroke-width:0.264583"
       d="m 362.31742,111.13895 -9.42475,43.15654 34.9157,-0.0336 -41.60004,83.45951 c 45.32054,0.005 90.64104,0.009 113.42098,-0.0129 22.77994,-0.0217 23.06026,-0.0813 23.3315,-0.17706 0.27124,-0.0957 0.62728,-0.17321 0.85576,-0.30851 0.25644,-0.15185 0.7061,-0.36998 1.00923,-0.68109 0.30314,-0.31111 0.74489,-0.72098 1.05896,-1.21704 0.42262,-0.6675 0.47279,-0.91818 0.5212,-1.20323 0.0484,-0.28505 0.13012,-0.7331 0.12482,-2.05258 -0.0116,-2.8459 0.0579,-7.63759 0.14477,-17.52807 0.0871,-9.91222 -0.13079,-24.66698 -0.16929,-39.41358 -0.0385,-14.7466 -0.0847,-29.48503 -0.0284,-39.36456 0.11264,-19.75938 0.0544,-20.07784 -0.0971,-20.48867 -0.15157,-0.41083 -0.39276,-0.96354 -0.62012,-1.38234 -0.22736,-0.41881 -0.5735,-0.78641 -0.82889,-1.07642 -0.25538,-0.29001 -0.49459,-0.49396 -0.74104,-0.69143 -0.24644,-0.19748 -0.50832,-0.3555 -0.71985,-0.50075 -0.21153,-0.14525 -0.43034,-0.23665 -0.64079,-0.30696 -0.21045,-0.0703 -0.45391,-0.0782 -0.69711,-0.0863 0,0 -2e-5,2e-4 -19.96933,-0.015 z m 57.29469,16.47238 c 0.0601,-0.0115 0.2355,0.0625 0.58705,0.20981 0.7031,0.29458 2.10963,0.88366 3.54087,1.61179 1.43124,0.72812 2.88724,1.59494 4.12533,2.4231 1.23808,0.82817 2.25817,1.6177 3.14192,2.33888 0.88376,0.72118 1.63119,1.3743 2.45102,2.15801 0.81983,0.7837 1.71205,1.69766 2.45824,2.53834 0.74619,0.84068 1.34631,1.60764 1.87017,2.29547 0.52387,0.68783 0.97117,1.2966 1.41232,1.96681 0.44116,0.67021 0.87613,1.40208 1.32912,2.28358 0.45299,0.88149 0.92387,1.91229 1.39113,3.1998 0.46726,1.28751 0.93091,2.8315 1.28106,4.21783 0.35015,1.38633 0.58705,2.61502 0.75447,3.53777 0.16743,0.92275 0.26554,1.53951 0.33022,2.30064 0.0647,0.76112 0.0959,1.66661 0.10903,2.83652 0.0131,1.1699 0.008,2.60397 -0.0667,3.91914 -0.0746,1.31516 -0.21858,2.51141 -0.28009,3.38687 -0.0615,0.87546 -0.0406,1.43047 0.0274,1.87017 0.068,0.4397 0.1832,0.76403 0.32453,1.06763 0.14133,0.30361 0.30893,0.58649 0.51832,0.83251 0.20938,0.24603 0.46042,0.4552 0.78496,0.6227 0.32454,0.1675 0.72226,0.29312 1.14102,0.32453 0.41875,0.0314 0.85883,-0.0316 1.34565,-0.18862 0.48682,-0.15704 1.02074,-0.40783 1.49707,-0.76378 0.47633,-0.35594 0.89475,-0.81672 1.24023,-1.32446 0.34548,-0.50775 0.61761,-1.06274 0.89504,-1.7694 0.27743,-0.70666 0.56055,-1.56475 0.73329,-2.49649 0.17273,-0.93174 0.23537,-1.93696 0.25631,-2.85823 0.0209,-0.92127 -3e-4,-1.75887 -0.0579,-2.50217 -0.0576,-0.7433 -0.15155,-1.39238 -0.14107,-1.65933 0.0105,-0.26695 0.12544,-0.15148 0.29817,0.016 0.17273,0.1675 0.40316,0.38701 0.80098,0.7953 0.39783,0.40829 0.96329,1.00504 1.48674,1.61747 0.52344,0.61244 1.00486,1.24076 1.54925,1.96836 0.5444,0.7276 1.15165,1.55443 1.65417,2.28203 0.50252,0.7276 0.9004,1.35588 1.32963,2.05207 0.42923,0.69619 0.88949,1.46055 1.32395,2.25619 0.43446,0.79565 0.84304,1.62258 1.27228,2.51768 0.42923,0.8951 0.87922,1.85812 1.30844,2.8422 0.42923,0.98409 0.83752,1.98894 1.2144,3.08819 0.37688,1.09924 0.72259,2.29282 0.95291,3.18792 0.23032,0.89509 0.34546,1.49178 0.48679,2.35024 0.14134,0.85846 0.30873,1.97845 0.41342,3.13004 0.10468,1.15159 0.14669,2.33458 0.15192,3.31866 0.005,0.98409 -0.0261,1.76919 -0.0837,2.55437 -0.0576,0.78518 -0.14143,1.57035 -0.23565,2.38693 -0.0942,0.81658 -0.19876,1.66454 -0.33486,2.47065 -0.1361,0.80611 -0.30408,1.57022 -0.52917,2.39727 -0.22509,0.82705 -0.50772,1.717 -0.81132,2.50218 -0.3036,0.78517 -0.62789,1.46564 -1.03094,2.26652 -0.40306,0.80089 -0.88438,1.7223 -1.31362,2.49701 -0.42923,0.77471 -0.80608,1.40266 -1.25625,2.07791 -0.45016,0.67525 -0.97397,1.39746 -1.42937,1.99419 -0.4554,0.59673 -0.84242,1.06801 -1.36064,1.68569 -0.51822,0.61767 -1.16748,1.38179 -1.80609,2.07274 -0.63861,0.69095 -1.26663,1.3089 -2.07274,2.04173 -0.80611,0.73284 -1.7903,1.58086 -2.74299,2.30322 -0.95268,0.72237 -1.87382,1.31908 -2.67994,1.8216 -0.80612,0.50251 -1.4972,0.91065 -2.3766,1.38699 -0.87939,0.47634 -1.94697,1.0208 -3.0148,1.4919 -1.06783,0.4711 -2.13585,0.86876 -2.90008,1.14619 -0.76423,0.27742 -1.22477,0.43432 -1.42369,0.45526 -0.19891,0.0209 -0.1361,-0.094 0.16227,-0.4656 0.29837,-0.37166 0.83229,-1.00008 1.3348,-1.71721 0.50251,-0.71713 0.97359,-1.52317 1.41852,-2.3921 0.44493,-0.86893 0.86343,-1.80032 1.19321,-2.61689 0.32977,-0.81658 0.57075,-1.51821 0.75396,-2.37144 0.1832,-0.85322 0.30882,-1.85836 0.32452,-2.86339 0.0157,-1.00502 -0.0783,-2.00997 -0.21962,-2.87889 -0.14133,-0.86892 -0.32995,-1.60163 -0.63355,-2.51768 -0.30361,-0.91604 -0.72231,-2.01501 -1.17771,-2.93367 -0.4554,-0.91865 -0.94746,-1.65684 -1.53634,-2.41846 -0.58888,-0.76161 -1.27485,-1.54671 -1.96319,-2.27169 -0.68833,-0.72498 -1.37923,-1.39 -2.04484,-2.02468 -0.6656,-0.63468 -1.30542,-1.23924 -1.94665,-1.92495 -0.64122,-0.68571 -1.28369,-1.45264 -1.788,-2.11873 -0.50431,-0.6661 -0.87077,-1.23115 -1.27382,-1.86191 -0.40306,-0.63076 -0.8428,-1.32692 -1.16996,-2.14612 -0.32716,-0.8192 -0.5417,-1.76149 -0.6935,-2.5833 -0.1518,-0.82182 -0.24043,-1.52293 -0.31109,-2.20865 -0.0707,-0.68573 -0.12324,-1.35592 -0.14418,-1.96836 -0.0209,-0.61244 -0.0102,-1.16722 0.0186,-1.6645 0.0288,-0.49728 0.0754,-0.93724 0.15916,-1.39526 0.0837,-0.45802 0.20438,-0.93408 0.22273,-1.15394 0.0183,-0.21985 -0.0654,-0.18337 -0.24598,-0.0682 -0.18059,0.11516 -0.45827,0.30889 -1.07332,0.7643 -0.61506,0.4554 -1.56745,1.17243 -2.44947,1.86862 -0.88201,0.69618 -1.69334,1.37162 -2.34766,1.96835 -0.65431,0.59674 -1.15167,1.11484 -1.9761,2.03088 -0.82444,0.91605 -1.97595,2.22962 -2.96003,3.5016 -0.98408,1.27198 -1.80088,2.50204 -2.49184,3.68505 -0.69095,1.183 -1.25591,2.31921 -1.68775,3.21169 -0.43184,0.89248 -0.73054,1.54155 -1.02629,2.26652 -0.29575,0.72498 -0.5888,1.52591 -0.85576,2.50476 -0.26697,0.97885 -0.50736,2.1355 -0.67748,3.16932 -0.17012,1.03381 -0.26974,1.94467 -0.31161,2.86856 -0.0419,0.92389 -0.0264,1.86085 -0.0238,2.50992 0.003,0.64907 -0.008,1.01033 0.008,1.32963 0.0157,0.31931 0.0577,0.59674 0.11524,0.971 0.0576,0.37427 0.13098,0.84503 0.23306,1.4025 0.10207,0.55748 0.23295,1.20162 0.40307,1.83762 0.17013,0.63599 0.37965,1.2641 0.55501,1.78232 0.17536,0.51821 0.31645,0.92645 0.54415,1.46037 0.2277,0.53392 0.54206,1.19309 0.82734,1.76889 0.28528,0.57579 0.54169,1.06795 0.77463,1.52859 0.23294,0.46063 0.44241,0.88972 0.68058,1.30586 0.23817,0.41614 0.5048,0.81932 0.83457,1.28519 0.32978,0.46588 0.72242,0.99457 0.8847,1.25367 0.16229,0.25911 0.094,0.24858 -0.7121,-0.076 -0.80613,-0.32455 -2.34986,-0.96284 -3.75532,-1.60145 -1.40547,-0.63862 -2.67247,-1.27732 -3.72329,-1.83348 -1.05082,-0.55617 -1.88539,-1.02998 -2.83187,-1.67484 -0.94648,-0.64485 -2.00481,-1.46073 -2.97191,-2.26756 -0.9671,-0.80683 -1.84315,-1.60461 -2.77813,-2.56573 -0.93497,-0.96113 -1.92878,-2.08579 -2.87682,-3.40651 -0.94805,-1.32073 -1.8503,-2.83765 -2.70681,-4.5899 -0.85652,-1.75226 -1.66723,-3.73952 -2.22519,-5.25912 -0.55796,-1.51959 -0.86294,-2.57132 -1.11725,-4.07262 -0.2543,-1.50129 -0.45789,-3.45189 -0.55035,-5.07927 -0.0925,-1.62738 -0.074,-2.93123 0.005,-4.07779 0.0786,-1.14656 0.2175,-2.13619 0.46716,-3.24114 0.24965,-1.10496 0.61025,-2.32515 1.03559,-3.57343 0.42534,-1.24828 0.91502,-2.52442 1.40508,-3.65249 0.49007,-1.12807 0.98019,-2.10795 1.56735,-3.15743 0.58716,-1.04948 1.27138,-2.16835 1.90014,-3.12074 0.62876,-0.95239 1.20226,-1.73852 1.72238,-2.38693 0.52012,-0.64842 0.98713,-1.15901 1.5751,-1.82418 0.58797,-0.66517 1.29677,-1.48453 1.90789,-2.17868 0.61112,-0.69415 1.12453,-1.26296 1.69499,-1.85467 0.57046,-0.5917 1.19768,-1.20664 2.06137,-2.06706 0.86369,-0.86041 1.96376,-1.96645 3.00137,-3.05356 1.03761,-1.0871 2.01287,-2.15499 2.84737,-3.07733 0.8345,-0.92234 1.52808,-1.69923 2.22157,-2.58227 0.69349,-0.88304 1.38684,-1.87206 2.05259,-2.87993 0.66574,-1.00786 1.30376,-2.03451 1.81694,-2.98689 0.51318,-0.95239 0.90133,-1.83095 1.26194,-2.70475 0.36061,-0.87379 0.69363,-1.74261 0.97565,-2.62103 0.28202,-0.87841 0.51308,-1.76603 0.67489,-2.58434 0.16182,-0.81831 0.25453,-1.56715 0.30076,-2.39933 0.0462,-0.83219 0.0462,-1.74776 -0.009,-2.62155 -0.0555,-0.87379 -0.16669,-1.70585 -0.38861,-2.65823 -0.22192,-0.95239 -0.55463,-2.02503 -0.94361,-2.94814 -0.38898,-0.92311 -0.83373,-1.69678 -1.05627,-2.0836 -0.11127,-0.1934 -0.16701,-0.29026 -0.10697,-0.30179 z" /><path
       style="display:inline;opacity:1;fill:#3784b6;fill-opacity:1;stroke-width:0.264583"
       d="m 330.92569,111.06116 c -41.63415,0 -83.2683,0 -104.18635,0.004 -20.91804,0.004 -21.11996,0.0134 -21.30828,0.0448 -0.18833,0.0314 -0.36302,0.0851 -0.58478,0.16127 -0.22175,0.0762 -0.49052,0.17471 -0.74139,0.28446 -0.25086,0.10976 -0.4838,0.23071 -0.70331,0.3763 -0.21951,0.14559 -0.42557,0.31582 -0.64732,0.53085 -0.22175,0.21503 -0.45916,0.47484 -0.67867,0.75035 -0.21951,0.27551 -0.4211,0.56668 -0.58237,0.85563 -0.16127,0.28894 -0.28222,0.57564 -0.37629,0.82651 -0.0941,0.25086 -0.16127,0.46588 -0.19487,20.1114 -0.0336,19.64553 -0.0336,58.71999 -0.0267,78.3273 0.007,19.60731 0.0206,19.74669 0.075,19.96209 0.0544,0.21539 0.14941,0.50682 0.27612,0.77924 0.12671,0.27242 0.28509,0.52583 0.45614,0.78241 0.17105,0.25658 0.35477,0.51632 0.57651,0.77607 0.22174,0.25974 0.48148,0.51949 0.77924,0.76656 0.29776,0.24708 0.63352,0.48148 0.91544,0.66838 0.28193,0.18689 0.50999,0.32626 0.79191,0.4498 0.28193,0.12354 0.61769,0.23124 7.23325,0.27304 6.61557,0.0418 19.51042,0.0177 32.40552,-0.006 0.55548,-11.04475 1.11097,-22.08949 1.38199,-27.80225 0.27103,-5.71277 0.25759,-6.09354 0.25536,-6.59752 -0.002,-0.50397 0.007,-1.13111 -0.0313,-1.6642 -0.0381,-0.53309 -0.12319,-0.9721 -0.24191,-1.43127 -0.11871,-0.45918 -0.27102,-0.9385 -0.45021,-1.37751 -0.17919,-0.43902 -0.38525,-0.83771 -0.73468,-1.38424 -0.34942,-0.54653 -0.84218,-1.24088 -1.45143,-1.933 -0.60925,-0.69212 -1.33495,-1.38199 -1.96883,-1.95316 -0.63389,-0.57116 -1.17592,-1.02361 -2.02036,-1.71573 -0.84444,-0.69213 -1.99122,-1.62389 -2.7875,-2.31153 -0.79627,-0.68764 -1.24199,-1.13112 -1.7124,-1.64854 -0.47041,-0.51741 -0.96547,-1.10872 -1.35555,-1.61029 -0.39008,-0.50156 -0.67516,-0.91334 -0.98243,-1.436 -0.30726,-0.52267 -0.63669,-1.15619 -0.93089,-1.84625 -0.2942,-0.69005 -0.55316,-1.4366 -0.77223,-2.26683 -0.21908,-0.83022 -0.39826,-1.74406 -0.49682,-2.72961 -0.0986,-0.98555 -0.1165,-2.04274 -0.0896,-3.16268 0.0269,-1.11994 0.0985,-2.30257 0.1971,-3.86153 0.0985,-1.55896 0.22398,-3.49416 0.35837,-5.3667 0.1344,-1.87254 0.27775,-3.68231 0.4211,-5.51005 0.14335,-1.82775 0.2867,-3.67335 0.41213,-5.39358 0.12544,-1.72023 0.23295,-3.31498 0.34942,-4.92769 0.11647,-1.61271 0.2419,-3.2433 0.36733,-4.82914 0.12544,-1.58583 0.25087,-3.12682 0.39422,-4.82017 0.14335,-1.69335 0.30462,-3.53896 0.39666,-4.94073 0.092,-1.40176 0.11483,-2.3596 0.15474,-3.2139 0.0399,-0.85431 0.0969,-1.60503 0.17453,-2.09443 0.0776,-0.4894 0.1758,-0.71747 0.31201,-0.9107 0.13622,-0.19322 0.31043,-0.3516 0.49891,-0.49256 0.18848,-0.14096 0.3912,-0.2645 0.61927,-0.32944 0.22807,-0.0649 0.48148,-0.0713 0.8125,-0.0713 0.33102,0 0.73964,0.006 0.99306,0.0238 0.25341,0.0174 0.3516,0.0459 0.45297,0.095 0.10137,0.0491 0.2059,0.11879 0.28986,0.17898 0.084,0.0602 0.14727,0.11085 0.21855,0.1758 0.0713,0.0649 0.15046,0.14412 0.22015,0.22807 0.0697,0.084 0.12987,0.17263 0.17262,0.26449 0.0428,0.0919 0.0681,0.1869 0.11086,4.65494 0.0428,4.46804 0.10294,13.30874 0.11402,18.83787 0.0111,5.52914 -0.0269,7.74645 -0.0491,9.60903 -0.0222,1.86259 -0.0285,3.37036 -0.0253,4.58358 0.003,1.21321 0.0158,2.1318 0.0554,2.71148 0.0396,0.57967 0.10612,0.82042 0.21382,1.03423 0.1077,0.21382 0.25657,0.40071 0.45139,0.56385 0.19481,0.16313 0.43554,0.3025 0.68421,0.38486 0.24867,0.0824 0.50523,0.10769 0.78874,0.12352 0.2835,0.0158 0.59393,0.0222 0.86952,0.005 0.27558,-0.0174 0.51633,-0.0586 0.73489,-0.12195 0.21856,-0.0634 0.41496,-0.14888 0.59551,-0.27559 0.18056,-0.12671 0.34527,-0.29459 0.47118,-0.43396 0.12592,-0.13938 0.21303,-0.25025 0.2748,-0.37458 0.0618,-0.12432 0.0982,-0.26213 0.11724,-0.73015 0.019,-0.46802 0.0207,-1.26625 0.035,-1.95997 0.0143,-0.69372 0.0412,-1.28289 0.0587,-2.11757 0.0174,-0.83468 0.0254,-1.91483 0.0388,-2.89839 0.0135,-0.98356 0.0325,-1.87048 0.0737,-2.86988 0.0412,-0.9994 0.10453,-2.11122 0.14284,-3.01249 0.0383,-0.90127 0.0516,-1.59194 0.11644,-3.70681 0.0649,-2.11487 0.18135,-5.65377 0.32022,-9.22862 0.13887,-3.57486 0.30014,-7.18543 0.42109,-9.64481 0.12095,-2.45938 0.20159,-3.76743 0.32702,-4.50659 0.12543,-0.73916 0.29566,-0.90938 0.47933,-1.07065 0.18367,-0.16127 0.38078,-0.31358 0.551,-0.43005 0.17023,-0.11647 0.31359,-0.19711 0.50622,-0.24639 0.19263,-0.0493 0.43453,-0.0672 0.66299,-0.0717 0.22847,-0.004 0.4435,0.004 0.65852,0.0493 0.21502,0.0448 0.43005,0.12544 0.62268,0.25535 0.19263,0.12991 0.36286,0.3091 0.51069,0.47485 0.14783,0.16575 0.27326,0.31806 0.34941,0.47485 0.0762,0.1568 0.10302,0.31807 0.12093,0.93628 0.0179,0.6182 0.0269,1.69331 0.15232,8.35925 0.12544,6.66595 0.36734,18.92221 0.4838,25.12214 0.11647,6.19993 0.10751,6.34328 0.13438,6.48215 0.0269,0.13887 0.0896,0.27326 0.21951,0.43901 0.12991,0.16576 0.32701,0.36286 0.53309,0.51966 0.20607,0.15679 0.42109,0.27326 0.65404,0.35837 0.23295,0.0851 0.4838,0.13887 0.75258,0.16575 0.26879,0.0269 0.55549,0.0269 0.85116,-0.009 0.29566,-0.0358 0.60027,-0.10751 0.82874,-0.20607 0.22847,-0.0986 0.38078,-0.22399 0.53309,-0.34046 0.15231,-0.11647 0.30462,-0.22398 0.46141,-0.38974 0.15679,-0.16575 0.31806,-0.38973 0.45245,-3.61518 0.1344,-3.22546 0.24191,-9.45215 0.34046,-14.50979 0.0986,-5.05764 0.18815,-8.94596 0.25982,-12.31922 0.0717,-3.37325 0.12543,-6.23125 0.16128,-7.94699 0.0358,-1.71574 0.0538,-2.28913 0.12546,-2.67438 0.0717,-0.38526 0.19711,-0.58237 0.36286,-0.78396 0.16575,-0.20159 0.37182,-0.40765 0.61373,-0.54652 0.24191,-0.13888 0.51964,-0.21055 0.80187,-0.24638 0.28222,-0.0358 0.56891,-0.0358 0.84666,0.0179 0.27775,0.0538 0.54652,0.16126 0.78843,0.34046 0.24191,0.17919 0.45693,0.43005 0.6003,0.60478 0.14336,0.17473 0.21501,0.27324 0.26428,0.3942 0.0493,0.12096 0.0761,0.2643 0.28157,5.23828 0.20544,4.97398 0.58944,14.7782 0.81945,20.95383 0.23002,6.17563 0.30604,8.72236 0.35672,10.54693 0.0507,1.82457 0.076,2.92688 0.10693,3.53693 0.0309,0.61005 0.0675,0.72781 0.13162,0.86845 0.0642,0.14064 0.15602,0.30416 0.27921,0.44751 0.12319,0.14335 0.27774,0.26654 0.52301,0.37629 0.24526,0.10976 0.58124,0.20607 0.9609,0.24303 0.37966,0.037 0.80298,0.0146 1.12888,-0.003 0.3259,-0.0179 0.55437,-0.0314 0.803,-0.12166 0.24862,-0.0903 0.51742,-0.25749 0.74368,-0.44878 0.22626,-0.19129 0.40998,-0.40669 0.52085,-0.59358 0.11087,-0.1869 0.14888,-0.34528 0.15557,-1.92126 0.007,-1.57599 -0.018,-4.56946 -0.0213,-7.37881 -0.003,-2.80935 0.0146,-5.43441 0.0191,-8.57025 0.004,-3.13584 -0.004,-6.78225 -0.0106,-10.71054 -0.006,-3.92829 -0.01,-8.1382 0.0331,-10.33506 0.0427,-2.19687 0.13137,-2.38058 0.26441,-2.5548 0.13304,-0.17422 0.31042,-0.33894 0.50682,-0.48782 0.19639,-0.14889 0.41179,-0.28193 0.65253,-0.35478 0.24074,-0.0729 0.50681,-0.0855 0.77924,-0.0792 0.27243,0.006 0.55116,0.0317 0.82358,0.11402 0.27241,0.0824 0.53851,0.22174 0.75707,0.40546 0.21856,0.18372 0.38961,0.41179 0.50364,0.64936 0.11404,0.23758 0.17106,0.48466 0.24391,1.11503 0.0729,0.63036 0.16156,1.64399 0.25342,2.7305 0.0919,1.08651 0.18689,2.24584 0.28509,3.4749 0.0982,1.22906 0.19956,2.52777 0.29775,3.74732 0.0982,1.21955 0.19323,2.35988 0.3136,3.82651 0.12038,1.46664 0.26609,3.25948 0.40863,5.19493 0.14255,1.93545 0.28192,4.01338 0.41813,5.75559 0.13621,1.74222 0.26925,3.14862 0.40546,4.77998 0.13621,1.63135 0.27558,3.48755 0.41179,5.14424 0.1362,1.65669 0.26924,3.11377 0.38011,4.81165 0.11087,1.69787 0.19956,3.63643 0.21857,5.11256 0.019,1.47613 -0.0317,2.48975 -0.12671,3.4749 -0.095,0.98514 -0.2344,1.94175 -0.48464,2.87938 -0.25025,0.93763 -0.61136,1.85623 -1.02316,2.67665 -0.4118,0.82043 -0.87426,1.54264 -1.37159,2.24586 -0.49732,0.70322 -1.02948,1.38741 -1.55531,1.99561 -0.52584,0.60819 -1.04532,1.14034 -1.6345,1.69152 -0.58919,0.55117 -1.24803,1.12133 -1.92592,1.67251 -0.67788,0.55118 -1.37475,1.08333 -2.01462,1.58699 -0.63987,0.50366 -1.2227,0.97879 -1.74853,1.4381 -0.52584,0.45931 -0.99464,0.90278 -1.38109,1.30824 -0.38646,0.40546 -0.69055,0.7729 -0.98198,1.18786 -0.29142,0.41497 -0.57017,0.87744 -0.85843,1.4888 -0.28825,0.61136 -0.586,1.37158 -0.77923,2.01778 -0.19323,0.6462 -0.28192,1.17836 -0.29459,2.3409 -0.0127,1.16254 0.0507,2.95539 0.1267,4.69127 0.076,1.73588 0.16472,3.4147 0.2946,5.49269 0.12987,2.078 0.30092,4.55504 0.43713,6.69005 0.13621,2.13501 0.23757,3.92785 0.36111,6.00584 0.12354,2.078 0.26925,4.44101 0.37695,6.48733 0.1077,2.04631 0.17738,3.7758 0.21537,4.63429 0.038,0.85848 0.0444,0.84571 0.0507,0.83304 0,0 55.08831,-0.0289 55.08831,-0.0289 0,0 9.1924,-41.23133 9.1924,-41.23133 0,0 -34.88804,0.0538 -34.88804,0.0538 z"
       id="path8-4" /><path
       style="opacity:1;fill:#f39042;fill-opacity:1;stroke-width:0.264583"
       d="m 434.68819,328.97201 c 1.30732,2.689 1.85917,5.7404 1.57646,8.71696 -0.37279,3.92498 -2.21964,7.69429 -5.10034,10.38614 -1.92398,1.79785 -4.28666,3.11576 -6.81591,3.84845 -2.7334,0.79183 -5.67234,0.89925 -8.43875,0.23183 -1.74475,-0.42093 -3.41568,-1.14605 -4.91487,-2.13286 l -3.4775,11.128 c 1.83709,0.88095 3.76799,1.56611 5.74947,2.04015 2.69622,0.64503 5.48315,0.89779 8.25328,0.78822 3.79124,-0.14995 7.5746,-0.98809 10.98892,-2.6429 2.48669,-1.20522 4.75963,-2.83298 6.76955,-4.7294 2.45824,-2.31942 4.53755,-5.05834 5.9813,-8.11419 1.46663,-3.10427 2.26296,-6.50122 2.55018,-9.92248 0.22737,-2.70831 0.1392,-5.45391 -0.4173,-8.11416 -0.43476,-2.07833 -1.15454,-4.09683 -2.13288,-5.98133 l 6.81593,-1.99377 -18.54671,-10.98891 -4.59031,20.54048 z"
       id="path10-2" /><path
       style="opacity:1;fill:#3784b6;fill-opacity:1;stroke-width:0.264583"
       d="m 427.08403,321.36789 c -1.35873,-0.82291 -2.8534,-1.42077 -4.40483,-1.76194 -2.27258,-0.49975 -4.66802,-0.44224 -6.90864,0.18544 -1.50363,0.42122 -2.92973,1.09274 -4.26575,1.90106 -1.73482,1.04961 -3.33416,2.34084 -4.63666,3.8948 -1.16245,1.38687 -2.08205,2.97837 -2.68928,4.68305 -0.63401,1.77986 -0.92557,3.67459 -0.92734,5.564 -0.001,1.59355 0.20162,3.18717 0.60278,4.7294 l 6.49134,-2.17924 -6.30587,19.65952 -17.74687,-11.39463 6.58209,-2.29515 c -0.32108,-1.15509 -0.583,-2.32663 -0.78439,-3.50848 -0.5053,-2.96535 -0.62681,-6.01116 -0.16393,-8.98343 0.19352,-1.24261 0.4882,-2.46838 0.85243,-3.67207 0.38889,-1.28519 0.85739,-2.54658 1.40981,-3.77042 0.63263,-1.40156 1.37551,-2.75389 2.22946,-4.0327 1.05767,-1.58389 2.28555,-3.05404 3.65567,-4.37697 2.29109,-2.1726 4.96072,-3.94492 7.8523,-5.21301 4.16481,-1.82646 8.77604,-2.59341 13.31547,-2.3192 2.92545,0.17672 5.82479,0.78009 8.57787,1.78511 z"
       id="path12-7" /><path
       style="display:inline;opacity:1;fill:#f39042;fill-opacity:1;stroke-width:0.264583"
       d="m 532.94174,298.67053 -12.30001,1.23 0.26357,12.87108 h -8.9175 v 10.41108 h 9.00536 v 23.28215 c 0.0752,0.77743 0.1631,1.55364 0.26357,2.32822 0.13422,1.03476 0.29158,2.06969 0.57107,3.075 0.88539,3.18473 3.02007,5.98473 5.79858,7.77536 2.26623,1.46049 4.91916,2.25833 7.59964,2.54786 4.4298,0.47848 8.99882,-0.42289 12.91501,-2.54786 l -3.29464,-10.19143 c -0.79613,0.68535 -1.75078,1.18541 -2.7675,1.44964 -0.94233,0.2449 -1.92596,0.28781 -2.89929,0.26357 -0.87745,-0.0219 -1.76535,-0.0997 -2.59179,-0.39535 -0.94598,-0.3384 -1.78746,-0.96298 -2.38529,-1.77043 -0.59783,-0.80746 -0.94963,-1.7946 -0.99721,-2.79815 l -0.0879,-23.01858 h 13.09072 v -10.36715 h -13.2225 z"
       id="path14-7" /><path
       style="opacity:1;fill:#f39042;fill-opacity:1;stroke-width:0.264583"
       d="m 456.82704,312.74792 h 12.45393 l -0.31181,26.43137 c 0.0738,1.31609 0.29851,2.62365 0.66839,3.88885 0.38311,1.31043 0.92608,2.58275 1.70138,3.70655 1.66676,2.41596 4.39244,4.03809 7.29155,4.49646 3.05595,0.48317 6.27963,-0.30599 8.81158,-2.08406 2.53196,-1.77806 4.3576,-4.51377 5.10317,-7.51651 0.18801,-0.75718 0.31014,-1.53071 0.36457,-2.30899 l 0.0608,-26.55345 h 12.39565 v 48.53559 l -11.24117,-0.0608 -0.54687,-6.76097 -0.85069,0.97221 c -0.61683,0.72738 -1.29897,1.39935 -2.03554,2.00517 -0.72966,0.60014 -1.51125,1.13444 -2.30899,1.6406 -1.11478,0.70732 -2.26784,1.36352 -3.49388,1.85328 -1.65498,0.6611 -3.42173,1.00979 -5.19525,1.18488 -1.60486,0.15844 -3.22469,0.17718 -4.83066,0.0304 -2.29973,-0.21018 -4.57377,-0.76317 -6.68393,-1.70135 -1.6864,-0.74978 -3.26927,-1.74798 -4.61798,-3.00778 -1.87679,-1.75307 -3.26608,-3.97969 -4.2871,-6.33619 -1.03994,-2.40016 -1.71613,-4.95579 -2.02142,-7.55369 -0.14736,-1.25402 -0.20882,-2.5164 -0.26358,-3.77786 -0.39164,-9.02167 -0.44573,-18.05799 -0.16213,-27.0837 z"
       id="path13-9" /><path
       style="opacity:1;fill:#3784b6;fill-opacity:1;stroke-width:0.264583"
       d="m 209.5394,311.27803 8.4343,-8.52215 c -1.80505,-1.85028 -3.81222,-3.50325 -5.97429,-4.92001 -2.65414,-1.7392 -5.54269,-3.12184 -8.56608,-4.08535 -3.5027,-1.11626 -7.1752,-1.6672 -10.85036,-1.75715 -4.50211,-0.11019 -9.03514,0.47346 -13.31037,1.88894 -2.94978,0.97663 -5.77078,2.34724 -8.34643,4.08535 -2.89714,1.95506 -5.4786,4.37263 -7.64358,7.11645 -2.80375,3.55337 -4.90581,7.65336 -6.19393,11.9925 -0.68021,2.29134 -1.13573,4.64912 -1.36179,7.02858 -0.32662,3.43785 -0.17322,6.91702 0.39536,10.32322 0.45131,2.70366 1.16495,5.36757 2.19643,7.90715 1.97604,4.86517 5.14232,9.26111 9.22501,12.56358 4.22928,3.42104 9.36349,5.62214 14.67215,6.80892 4.50008,1.00602 9.15445,1.30588 13.74965,0.9225 3.44195,-0.28717 6.86236,-0.95918 10.10358,-2.15249 4.76135,-1.75298 9.10214,-4.63673 12.56357,-8.34644 l -8.52215,-8.82965 c -0.6593,0.74565 -1.38003,1.43697 -2.15249,2.06465 -1.39119,1.13044 -2.94548,2.0506 -4.56858,2.81143 -2.33912,1.09646 -4.83052,1.8673 -7.38,2.28428 -5.47306,0.89514 -11.2726,0.0991 -16.1218,-2.59178 -3.25023,-1.80361 -6.04074,-4.43771 -7.995,-7.59965 -2.11846,-3.42761 -3.23618,-7.43859 -3.3825,-11.46537 -0.0744,-2.04683 0.0966,-4.10367 0.52714,-6.10608 0.48922,-2.27526 1.31194,-4.4736 2.37214,-6.54535 1.05731,-2.06611 2.36073,-4.02127 3.9975,-5.66679 2.31855,-2.33095 5.26446,-3.98921 8.39037,-5.00787 2.52042,-0.82135 5.16863,-1.24002 7.81929,-1.27392 3.6726,-0.047 7.36607,0.65218 10.71857,2.15249 1.61462,0.72258 3.14658,1.62749 4.56858,2.67965 0.92763,0.68637 1.80887,1.43542 2.63571,2.24036 z"
       id="path15-3" /><path
       style="opacity:1;fill:#3784b6;fill-opacity:1;stroke-width:0.264583"
       d="m 287.01481,293.3515 h 12.30064 v 67.9641 h -12.30064 z"
       id="path16-1" /><path
       style="display:inline;opacity:1;fill:#3784b6;fill-opacity:1;stroke-width:0.264583"
       d="m 333.98087,312.98281 v 48.45705 l 12.30063,-0.12425 c -0.22974,-7.57696 -0.354,-15.15711 -0.37274,-22.73753 -0.003,-1.34603 -0.003,-2.69206 0,-4.03809 0.002,-0.6523 0.0357,-1.31033 0.21155,-1.93847 0.1759,-0.62814 0.47433,-1.21405 0.78244,-1.789 0.73699,-1.37529 1.50999,-2.74808 2.5471,-3.91384 1.44688,-1.62637 3.38018,-2.79722 5.46695,-3.41684 2.39801,-0.71203 5.01023,-0.69999 7.3928,0.0621 2.37198,0.7587 4.51929,2.27735 5.90182,4.34871 1.12335,1.68304 1.72166,3.68232 1.90766,5.69725 0.10249,1.11021 0.0843,2.22761 0.0672,3.34241 -0.12566,8.20993 -0.18342,16.42089 -0.17326,24.63177 h 12.17639 l -0.12425,-25.96801 c -0.009,-1.80337 -0.006,-3.61048 -0.18638,-5.40482 -0.29913,-2.97386 -1.13422,-5.91149 -2.60922,-8.51105 -1.51131,-2.66355 -3.68828,-4.94516 -6.27457,-6.58518 -3.4501,-2.18778 -7.59739,-3.20804 -11.67939,-3.0441 -5.86074,0.23538 -11.58232,2.9459 -15.47675,7.33191 l -0.99937,-6.56732 z"
       id="path19-9" /><path
       style="display:inline;opacity:1;fill:#3784b6;fill-opacity:1;stroke-width:0.264583"
       d="m 310.62207,313.10707 h 12.05214 v 48.33278 h -12.17639 z"
       id="path17-8" /><ellipse
       style="display:inline;opacity:1;fill:#3784b6;fill-opacity:1;stroke-width:0.265957"
       id="path18-6"
       cx="316.57047"
       cy="299.4397"
       rx="7.5325851"
       ry="7.4549298" /><path
       id="path20-5"
       style="display:inline;opacity:1;fill:#3784b6;fill-opacity:1;stroke-width:0.271828"
       d="m 246.79062,311.54171 a 23.809299,25.390732 0 0 0 -23.80888,25.3907 23.809299,25.390732 0 0 0 23.80888,25.39069 23.809299,25.390732 0 0 0 17.13229,-7.84448 v 7.05383 h 11.94862 v -48.76084 h -11.94862 v 6.61458 a 23.809299,25.390732 0 0 0 -17.13229,-7.84448 z m 2.73627,10.69444 a 14.433,14.86 0 0 1 14.39602,13.83119 v 1.4671 a 14.433,14.86 0 0 1 -14.39602,14.42134 14.433,14.86 0 0 1 -14.43271,-14.85956 14.433,14.86 0 0 1 14.43271,-14.86007 z" /><path
       style="opacity:1;fill:#f39042;fill-opacity:1;stroke:#f0fcd8;stroke-width:0;stroke-dasharray:none;stroke-opacity:1;paint-order:stroke fill markers"
       d="m 341.92792,247.21429 -5.2151,10.4068 h 145.41468 1.84751 c 1.57949,0 3.18367,-0.12411 4.65381,-0.70158 1.72608,-0.51229 3.40404,-1.18661 5.00462,-2.0112 2.18771,-1.12708 4.24178,-2.54537 5.94008,-4.32643 0.98935,-1.03756 1.85191,-2.19119 2.62609,-3.39783 1.43355,-2.23435 2.57137,-4.66392 3.30428,-7.21544 0.61723,-2.14881 0.94601,-4.38028 0.97475,-6.6158 1e-4,-0.78169 1e-4,-1.56339 0,-2.34508 -0.001,-8.87113 -0.0149,-17.74227 -0.0413,-26.61336 2.2906,0.22375 4.60741,0.17799 6.88739,-0.13604 0.73627,-0.10141 1.47063,-0.23113 2.18282,-0.44365 1.37592,-0.41059 2.66213,-1.13558 3.69643,-2.13156 1.0343,-0.99597 1.81166,-2.26429 2.18875,-3.64977 0.096,-0.35287 0.16644,-0.71271 0.21047,-1.07576 l -0.0936,-43.35779 c -0.001,-0.62404 0.0111,-1.24953 -0.0467,-1.87089 -0.15857,-1.70554 -0.93635,-3.3468 -2.15599,-4.5495 -1.21964,-1.2027 -2.87162,-1.95745 -4.57921,-2.09215 l -8.32544,-0.0661 0.0468,-29.31269 c 0.002,-1.23189 0.0536,-2.47256 -0.14033,-3.68909 -0.15561,-0.9761 -0.48749,-1.91377 -0.79513,-2.8531 -0.32392,-0.98905 -0.62328,-1.98824 -1.02899,-2.94665 -0.56705,-1.33956 -1.33555,-2.58432 -2.15151,-3.78855 -0.79852,-1.17849 -1.64793,-2.3269 -2.61924,-3.367591 -1.08923,-1.16703 -2.32635,-2.191981 -3.64824,-3.086963 -1.16338,-0.787666 -2.39217,-1.475298 -3.64823,-2.104747 -1.33578,-0.669401 -2.71263,-1.276993 -4.16272,-1.637027 -0.87251,-0.216629 -1.76759,-0.342253 -2.66602,-0.374176 H 367.24169 l -2.77042,10.339324 h 120.08006 c 0.29944,0.0285 0.59754,0.0711 0.89296,0.12774 1.93692,0.37123 3.72417,1.34073 5.2586,2.57969 1.04655,0.84502 1.98993,1.82043 2.77812,2.91042 0.79481,1.09914 1.43111,2.31552 1.85209,3.60494 0.201,0.61565 0.35287,1.24697 0.46302,1.88516 0.0678,0.39309 0.0992,0.79173 0.0992,1.19063 v 117.77214 c 0,1.22341 -0.0172,2.45161 -0.20631,3.66032 -0.18909,1.2087 -0.54253,2.39357 -1.07335,3.49582 -1.47384,3.0604 -4.25551,5.37952 -7.39,6.68842 -1.08993,0.45513 -2.23655,0.8002 -3.41437,0.88867 -0.4046,0.0304 -0.81148,0.0304 -1.21608,0 z"
       id="path75-0" /><path
       style="display:inline;opacity:1;fill:url(#linearGradient74-9);stroke-width:0.264583"
       d="m 365.18659,59.722501 c 0,0 -61.70985,128.538219 -61.70985,128.538219 0,0 31.91795,0.005 31.91795,0.005 0,0 -21.33145,95.64477 -21.33145,95.64477 0,0 60.41827,-121.32549 60.41827,-121.32549 0,0 -31.84689,-0.0335 -31.84689,-0.0335 z"
       id="path7-7"
       transform="translate(-1.4685611e-6)" /></g></svg>
